# Blender 4.0.1
# www.blender.org
g Enemy_Cube.048
v -0.618034 0.006686 0.034964
v -0.741664 1.851120 0.158593
v -0.618034 0.006686 -0.250973
v -0.741664 1.851120 -0.374602
v -0.332098 0.006686 0.034964
v -0.208468 1.851120 0.158593
v -0.332098 0.006686 -0.250973
v -0.208468 1.851120 -0.374602
v 0.618034 0.006686 0.034964
v 0.741664 1.851120 0.158593
v 0.618034 0.006686 -0.250973
v 0.741664 1.851120 -0.374602
v 0.332098 0.006686 0.034964
v 0.208468 1.851120 0.158593
v 0.332098 0.006686 -0.250973
v 0.208468 1.851120 -0.374602
v 0.575462 4.166720 -0.081999
v 0.489016 4.149525 -0.044774
v 0.402569 4.132329 -0.081999
v 0.366762 4.125206 -0.171865
v 0.402569 4.132329 -0.261732
v 0.489016 4.149525 -0.298956
v 0.575462 4.166720 -0.261732
v 0.423013 4.475266 -0.081998
v 0.359468 4.411721 -0.044774
v 0.295922 4.348176 -0.081999
v 0.269601 4.321854 -0.171865
v 0.295922 4.348176 -0.261732
v 0.359468 4.411721 -0.298956
v 0.423013 4.475266 -0.261732
v 0.228933 4.604947 -0.081998
v 0.194543 4.521920 -0.044774
v 0.160152 4.438894 -0.081998
v 0.145907 4.404503 -0.171865
v 0.160152 4.438894 -0.261732
v 0.194543 4.521920 -0.298956
v 0.228933 4.604947 -0.261732
v 0.000000 4.650484 -0.081998
v 0.000000 4.560617 -0.044774
v 0.000000 4.470750 -0.081998
v 0.000000 4.433526 -0.171865
v 0.000000 4.470750 -0.261732
v 0.000000 4.560617 -0.298956
v 0.000000 4.650484 -0.261732
v -0.228933 4.604947 -0.081998
v -0.194543 4.521920 -0.044774
v -0.160152 4.438894 -0.081998
v -0.145907 4.404503 -0.171865
v -0.160152 4.438894 -0.261732
v -0.194543 4.521920 -0.298956
v -0.228933 4.604947 -0.261732
v -0.423013 4.475266 -0.081998
v -0.359468 4.411721 -0.044774
v -0.295922 4.348175 -0.081999
v -0.269601 4.321854 -0.171865
v -0.295922 4.348175 -0.261732
v -0.359468 4.411721 -0.298956
v -0.423013 4.475266 -0.261732
v -0.575462 4.166720 -0.081999
v -0.489016 4.149525 -0.044774
v -0.402569 4.132329 -0.081999
v -0.366762 4.125206 -0.171865
v -0.402569 4.132329 -0.261732
v -0.489016 4.149525 -0.298956
v -0.575462 4.166720 -0.261732
v -0.552693 3.823320 -0.081999
v -0.469667 3.857711 -0.044774
v -0.386641 3.892101 -0.081999
v -0.352250 3.906346 -0.171865
v -0.386641 3.892101 -0.261732
v -0.469667 3.857711 -0.298956
v -0.552693 3.823320 -0.261732
v 0.552693 3.823319 -0.081999
v 0.469667 3.857710 -0.044774
v 0.386641 3.892101 -0.081999
v 0.352250 3.906346 -0.171865
v 0.386641 3.892101 -0.261732
v 0.469667 3.857710 -0.298956
v 0.552693 3.823319 -0.261732
v 0.000000 2.144176 -1.299964
v -0.431704 2.144176 -1.214092
v 0.797686 2.144176 -0.969551
v -1.042227 2.144176 -0.603570
v 1.128098 2.144176 -0.171865
v -0.797686 2.144176 0.625820
v 0.797686 2.144176 0.625820
v 0.431704 2.144176 0.870361
v 0.000000 2.144176 0.956232
v -0.431704 2.144176 0.870361
v 1.042227 2.144176 0.259839
v -1.042227 2.144176 0.259839
v -1.128098 2.144176 -0.171865
v 1.042227 2.144176 -0.603570
v -0.797686 2.144176 -0.969551
v 0.431704 2.144176 -1.214092
v -0.000000 4.012501 -0.171865
v 0.000000 3.272782 -1.170269
v 0.000000 3.907203 -0.753508
v 0.000000 3.642642 -1.038766
v 0.382073 3.272782 -1.094270
v 0.222585 3.907203 -0.709233
v 0.331749 3.642642 -0.972777
v 0.705978 3.272782 -0.877844
v 0.411283 3.907203 -0.583149
v 0.612991 3.642642 -0.784857
v 0.922405 3.272782 -0.553938
v 0.537367 3.907203 -0.394450
v 0.800912 3.642642 -0.503614
v 0.998404 3.272782 -0.171865
v 0.581642 3.907202 -0.171865
v 0.866901 3.642642 -0.171865
v 0.922405 3.272782 0.210207
v 0.537367 3.907202 0.050719
v 0.800912 3.642642 0.159883
v 0.705978 3.272782 0.534113
v 0.411283 3.907202 0.239418
v 0.612991 3.642642 0.441126
v 0.382073 3.272782 0.750540
v 0.222585 3.907202 0.365502
v 0.331749 3.642642 0.629046
v 0.000000 3.272782 0.826539
v 0.000000 3.907202 0.409777
v 0.000000 3.642642 0.695035
v -0.382073 3.272782 0.750540
v -0.222585 3.907202 0.365502
v -0.331749 3.642642 0.629046
v -0.705978 3.272782 0.534113
v -0.411283 3.907202 0.239418
v -0.612991 3.642642 0.441126
v -0.922405 3.272782 0.210207
v -0.537367 3.907202 0.050719
v -0.800912 3.642642 0.159883
v -0.998404 3.272782 -0.171865
v -0.581642 3.907202 -0.171865
v -0.866901 3.642642 -0.171865
v -0.922405 3.272782 -0.553938
v -0.537367 3.907203 -0.394450
v -0.800912 3.642642 -0.503614
v -0.705978 3.272782 -0.877844
v -0.411283 3.907203 -0.583149
v -0.612991 3.642642 -0.784857
v -0.382073 3.272782 -1.094270
v -0.222585 3.907203 -0.709233
v -0.331749 3.642642 -0.972777
v -0.573173 1.772139 -1.555628
v 0.000000 1.772138 -1.669639
v -1.059086 1.772139 -1.230951
v -1.383763 1.772139 -0.745039
v -1.497774 1.772139 -0.171865
v -1.383763 1.772139 0.401308
v -1.059086 1.772139 0.887221
v -0.573173 1.772139 1.211897
v 0.000000 1.772139 1.325908
v 0.573173 1.772139 1.211897
v 1.059086 1.772139 0.887221
v 1.383763 1.772139 0.401308
v 1.497774 1.772139 -0.171865
v 1.383763 1.772139 -0.745039
v 1.059086 1.772139 -1.230951
v 0.573173 1.772139 -1.555628
v -0.437039 1.440443 -1.226971
v 0.000000 1.440443 -1.313904
v -0.807543 1.440443 -0.979409
v -1.055106 1.440443 -0.608905
v -1.142038 1.440443 -0.171865
v -1.055106 1.440443 0.265174
v -0.807543 1.440443 0.635678
v -0.437039 1.440443 0.883240
v 0.000000 1.440443 0.970173
v 0.437039 1.440443 0.883240
v 0.807543 1.440443 0.635678
v 1.055106 1.440443 0.265174
v 1.142038 1.440443 -0.171865
v 1.055106 1.440443 -0.608905
v 0.807543 1.440443 -0.979409
v 0.437039 1.440443 -1.226971
v -0.573173 1.440443 -1.555628
v 0.000000 1.440443 -1.669639
v -1.059086 1.440443 -1.230951
v -1.383763 1.440443 -0.745039
v -1.497774 1.440443 -0.171865
v -1.383763 1.440443 0.401308
v -1.059086 1.440443 0.887221
v -0.573173 1.440443 1.211897
v 0.000000 1.440443 1.325908
v 0.573173 1.440443 1.211897
v 1.059086 1.440443 0.887221
v 1.383763 1.440443 0.401308
v 1.497774 1.440443 -0.171865
v 1.383763 1.440443 -0.745039
v 1.059086 1.440443 -1.230951
v 0.573173 1.440443 -1.555628
v -0.205134 2.531154 -0.667104
v -0.000000 2.531154 -0.707907
v -0.379039 2.531154 -0.550904
v -0.495238 2.531154 -0.377000
v -0.536042 2.531154 -0.171865
v -0.495238 2.531154 0.033269
v -0.379039 2.531154 0.207173
v -0.205134 2.531154 0.323373
v -0.000000 2.531154 0.364177
v 0.205134 2.531154 0.323373
v 0.379039 2.531154 0.207173
v 0.495238 2.531154 0.033269
v 0.536042 2.531154 -0.171865
v 0.495238 2.531154 -0.377000
v 0.379039 2.531154 -0.550904
v 0.205134 2.531154 -0.667104
vn -0.9978 -0.0669 -0.0000
vn -0.0000 -0.0669 -0.9978
vn 0.9978 -0.0669 -0.0000
vn -0.0000 -0.0669 0.9978
vn -0.0000 -1.0000 -0.0000
vn -0.8412 0.1673 -0.5142
vn -0.8708 -0.0577 -0.4883
vn -0.8708 -0.0577 0.4883
vn -0.8412 0.1673 0.5142
vn 0.8412 0.1673 0.5142
vn 0.6423 0.5660 0.5167
vn 0.0509 0.0387 0.9980
vn 0.0635 0.0126 0.9979
vn -0.5068 -0.4430 0.7395
vn -0.6646 -0.1322 0.7354
vn -0.7546 -0.6562 -0.0000
vn -0.9808 -0.1951 -0.0000
vn -0.5068 -0.4430 -0.7395
vn -0.6646 -0.1322 -0.7354
vn 0.0509 0.0387 -0.9980
vn 0.0635 0.0126 -0.9979
vn 0.6423 0.5660 -0.5167
vn 0.8412 0.1673 -0.5142
vn 0.3255 0.7859 -0.5258
vn -0.0000 0.8506 -0.5258
vn -0.0000 0.8506 0.5258
vn 0.3255 0.7859 0.5258
vn 0.0183 0.0441 0.9989
vn -0.2608 -0.6297 0.7317
vn -0.3827 -0.9239 -0.0000
vn -0.2608 -0.6297 -0.7317
vn 0.0183 0.0441 -0.9989
vn -0.3255 0.7859 -0.5258
vn -0.3255 0.7859 0.5258
vn -0.0000 0.0477 0.9989
vn -0.0000 -0.6816 0.7317
vn -0.0000 -0.6816 -0.7317
vn -0.0000 0.0477 -0.9989
vn -0.6423 0.5660 -0.5167
vn -0.6423 0.5660 0.5167
vn -0.0183 0.0441 0.9989
vn 0.2608 -0.6297 0.7317
vn 0.3827 -0.9239 -0.0000
vn 0.2608 -0.6297 -0.7317
vn -0.0183 0.0441 -0.9989
vn -0.0509 0.0387 0.9980
vn 0.5068 -0.4430 0.7395
vn 0.7546 -0.6562 -0.0000
vn 0.5068 -0.4430 -0.7395
vn -0.0509 0.0387 -0.9980
vn 0.8708 -0.0577 -0.4883
vn 0.8708 -0.0577 0.4883
vn -0.0635 0.0126 0.9979
vn 0.6646 -0.1322 0.7354
vn 0.9808 -0.1951 -0.0000
vn 0.6646 -0.1322 -0.7354
vn -0.0635 0.0126 -0.9979
vn -0.0833 -0.0055 0.9965
vn 0.6815 0.0452 0.7305
vn 0.9978 0.0662 -0.0000
vn 0.6815 0.0452 -0.7305
vn -0.0833 -0.0055 -0.9965
vn 0.0833 -0.0055 0.9965
vn -0.6815 0.0452 0.7305
vn -0.9978 0.0662 -0.0000
vn -0.6815 0.0452 -0.7305
vn 0.0833 -0.0055 -0.9965
vn -0.3417 0.4502 -0.8250
vn -0.3730 0.2230 -0.9006
vn -0.0000 0.2230 -0.9748
vn -0.0000 0.4502 -0.8929
vn 0.6314 0.4502 -0.6314
vn 0.6893 0.2230 -0.6893
vn 0.9006 0.2230 -0.3730
vn 0.8250 0.4502 -0.3417
vn 0.9748 0.2230 -0.0000
vn 0.8929 0.4502 -0.0000
vn 0.9006 0.2230 0.3730
vn 0.8250 0.4502 0.3417
vn 0.6893 0.2230 0.6893
vn 0.6314 0.4502 0.6314
vn 0.3730 0.2230 0.9006
vn 0.3417 0.4502 0.8250
vn -0.0000 0.2230 0.9748
vn -0.0000 0.4502 0.8929
vn -0.3730 0.2230 0.9006
vn -0.3417 0.4502 0.8250
vn -0.6893 0.2230 0.6893
vn -0.6314 0.4502 0.6314
vn -0.9006 0.2230 0.3730
vn -0.8250 0.4502 0.3417
vn -0.9748 0.2230 -0.0000
vn -0.8929 0.4502 -0.0000
vn -0.9006 0.2230 -0.3730
vn -0.8250 0.4502 -0.3417
vn -0.6893 0.2230 -0.6893
vn -0.6314 0.4502 -0.6314
vn 0.3730 0.2230 -0.9006
vn 0.3417 0.4502 -0.8250
vn -0.8600 0.3655 0.3562
vn -0.6582 0.3655 0.6582
vn -0.0000 0.5367 -0.8437
vn 0.3229 0.5367 -0.7795
vn -0.0000 0.8804 -0.4742
vn 0.1815 0.8804 -0.4381
vn -0.0000 1.0000 -0.0000
vn 0.5966 0.5367 -0.5966
vn 0.3353 0.8804 -0.3353
vn 0.7795 0.5367 -0.3229
vn 0.4381 0.8804 -0.1815
vn 0.8437 0.5367 -0.0000
vn 0.4742 0.8804 -0.0000
vn 0.7795 0.5367 0.3229
vn 0.4381 0.8804 0.1815
vn 0.5966 0.5367 0.5966
vn 0.3353 0.8804 0.3353
vn 0.3229 0.5367 0.7795
vn 0.1815 0.8804 0.4381
vn -0.0000 0.5367 0.8437
vn -0.0000 0.8804 0.4742
vn -0.3229 0.5367 0.7795
vn -0.1815 0.8804 0.4381
vn -0.5966 0.5367 0.5966
vn -0.3353 0.8804 0.3353
vn -0.7795 0.5367 0.3229
vn -0.4381 0.8804 0.1815
vn -0.8437 0.5367 -0.0000
vn -0.4742 0.8804 -0.0000
vn -0.7795 0.5367 -0.3229
vn -0.4381 0.8804 -0.1815
vn -0.5966 0.5367 -0.5966
vn -0.3353 0.8804 -0.3353
vn -0.3229 0.5367 -0.7795
vn -0.1815 0.8804 -0.4381
vn -0.8600 0.3655 -0.3562
vn -0.6582 0.3655 -0.6582
vn -0.5276 -0.6657 -0.5276
vn -0.6894 -0.6657 -0.2856
vn 0.3562 0.3655 -0.8600
vn -0.0000 0.3655 -0.9308
vn -0.3562 0.3655 -0.8600
vn 0.6582 0.3655 0.6582
vn 0.8600 0.3655 0.3562
vn 0.9308 0.3655 -0.0000
vn -0.3562 0.3655 0.8600
vn -0.0000 0.3655 0.9308
vn 0.8600 0.3655 -0.3562
vn -0.9308 0.3655 -0.0000
vn 0.6582 0.3655 -0.6582
vn 0.3562 0.3655 0.8600
vn -0.0000 -0.8894 -0.4571
vn 0.1749 -0.8894 -0.4223
vn 0.3345 -0.4857 -0.8076
vn -0.0000 -0.4857 -0.8741
vn 0.5276 -0.6657 0.5276
vn 0.6894 -0.6657 0.2856
vn -0.7462 -0.6657 -0.0000
vn 0.7462 -0.6657 -0.0000
vn -0.6894 -0.6657 0.2856
vn 0.6894 -0.6657 -0.2856
vn -0.5276 -0.6657 0.5276
vn 0.5276 -0.6657 -0.5276
vn -0.2856 -0.6657 0.6894
vn 0.2856 -0.6657 -0.6894
vn -0.0000 -0.6657 0.7462
vn -0.0000 -0.6657 -0.7462
vn -0.2856 -0.6657 -0.6894
vn 0.2856 -0.6657 0.6894
vn -0.0000 -0.8894 0.4571
vn 0.1749 -0.8894 0.4223
vn 0.3232 -0.8894 0.3232
vn 0.4223 -0.8894 0.1749
vn 0.4571 -0.8894 -0.0000
vn 0.4223 -0.8894 -0.1749
vn 0.3232 -0.8894 -0.3232
vn -0.1749 -0.8894 -0.4223
vn -0.3232 -0.8894 -0.3232
vn -0.4223 -0.8894 -0.1749
vn -0.4571 -0.8894 -0.0000
vn -0.4223 -0.8894 0.1749
vn -0.3232 -0.8894 0.3232
vn -0.1749 -0.8894 0.4223
vn -0.0000 -0.4857 0.8741
vn 0.3345 -0.4857 0.8076
vn -0.3345 -0.4857 0.8076
vn -0.3345 -0.4857 -0.8076
vn 0.6181 -0.4857 0.6181
vn -0.6181 -0.4857 -0.6181
vn 0.8076 -0.4857 0.3345
vn -0.8076 -0.4857 -0.3345
vn 0.8741 -0.4857 -0.0000
vn -0.8741 -0.4857 -0.0000
vn 0.8076 -0.4857 -0.3345
vn -0.8076 -0.4857 0.3345
vn 0.6181 -0.4857 -0.6181
vn -0.6181 -0.4857 0.6181
vt 0.375000 0.000000
vt 0.625000 0.000000
vt 0.625000 0.250000
vt 0.375000 0.250000
vt 0.625000 0.500000
vt 0.375000 0.500000
vt 0.625000 0.750000
vt 0.375000 0.750000
vt 0.625000 1.000000
vt 0.375000 1.000000
vt 0.125000 0.500000
vt 0.125000 0.750000
vt 0.000000 0.375000
vt 0.062500 0.375000
vt 0.062500 0.625000
vt 0.000000 0.625000
vt 0.531250 0.625000
vt 0.625000 0.625000
vt 0.531250 0.750000
vt 0.625000 0.875000
vt 0.531250 0.875000
vt 0.531250 1.000000
vt 0.531250 0.000000
vt 0.625000 0.125000
vt 0.531250 0.125000
vt 0.531250 0.250000
vt 0.625000 0.375000
vt 0.531250 0.375000
vt 0.687500 0.375000
vt 0.750000 0.375000
vt 0.750000 0.625000
vt 0.687500 0.625000
vt 0.687500 0.750000
vt 0.687500 0.875000
vt 0.687500 1.000000
vt 0.687500 0.000000
vt 0.687500 0.125000
vt 0.687500 0.250000
vt 0.812500 0.375000
vt 0.812500 0.625000
vt 0.750000 0.750000
vt 0.750000 0.875000
vt 0.750000 1.000000
vt 0.750000 0.000000
vt 0.750000 0.125000
vt 0.750000 0.250000
vt 0.875000 0.375000
vt 0.875000 0.625000
vt 0.812500 0.750000
vt 0.812500 0.875000
vt 0.812500 1.000000
vt 0.812500 0.000000
vt 0.812500 0.125000
vt 0.812500 0.250000
vt 0.968750 0.375000
vt 0.968750 0.625000
vt 0.875000 0.750000
vt 0.875000 0.875000
vt 0.875000 1.000000
vt 0.875000 0.000000
vt 0.875000 0.125000
vt 0.875000 0.250000
vt 0.437500 0.375000
vt 0.437500 0.625000
vt 0.968750 0.750000
vt 0.968750 0.875000
vt 0.968750 1.000000
vt 0.968750 0.000000
vt 0.968750 0.125000
vt 0.968750 0.250000
vt 0.062500 0.750000
vt 0.000000 0.750000
vt 0.062500 0.875000
vt 0.000000 0.875000
vt 0.062500 1.000000
vt 0.000000 1.000000
vt 0.000000 0.000000
vt 0.062500 0.000000
vt 0.062500 0.125000
vt 0.000000 0.125000
vt 0.062500 0.250000
vt 0.000000 0.250000
vt 0.437500 0.750000
vt 0.437500 0.875000
vt 0.437500 1.000000
vt 0.437500 0.000000
vt 0.437500 0.125000
vt 0.437500 0.250000
vt 0.062500 0.500000
vt 0.062500 0.814775
vt 0.000000 0.814775
vt 0.000000 0.500000
vt 0.875000 0.500000
vt 0.875000 0.814775
vt 0.812500 0.814775
vt 0.812500 0.500000
vt 0.750000 0.814775
vt 0.750000 0.500000
vt 0.687500 0.814775
vt 0.687500 0.500000
vt 0.625000 0.814775
vt 0.562500 0.814775
vt 0.562500 0.500000
vt 0.500000 0.814775
vt 0.500000 0.500000
vt 0.437500 0.814775
vt 0.437500 0.500000
vt 0.375000 0.814775
vt 0.312500 0.814775
vt 0.312500 0.500000
vt 0.250000 0.814775
vt 0.250000 0.500000
vt 0.187500 0.814775
vt 0.187500 0.500000
vt 0.125000 0.814775
vt 1.000000 0.500000
vt 1.000000 0.814775
vt 0.937500 0.814775
vt 0.937500 0.500000
vt 0.875000 0.814775
vt 0.996837 1.000000
vt 0.940663 1.000000
vt 0.337196 0.472656
vt 0.254648 0.489076
vt 0.250000 0.399350
vt 0.307154 0.387981
vt 0.272464 0.304232
vt 0.934337 1.000000
vt 0.878163 1.000000
vt 0.415766 0.422338
vt 0.345784 0.469098
vt 0.355606 0.355606
vt 0.291507 0.291507
vt 0.871837 1.000000
vt 0.815663 1.000000
vt 0.469098 0.345784
vt 0.422338 0.415766
vt 0.387981 0.307154
vt 0.304232 0.272463
vt 0.809337 1.000000
vt 0.753163 1.000000
vt 0.489076 0.254648
vt 0.472656 0.337196
vt 0.399350 0.250000
vt 0.308700 0.250000
vt 0.746837 1.000000
vt 0.690663 1.000000
vt 0.472656 0.162804
vt 0.489076 0.245352
vt 0.387981 0.192846
vt 0.304232 0.227536
vt 0.684337 1.000000
vt 0.628163 1.000000
vt 0.422338 0.084234
vt 0.469098 0.154216
vt 0.355606 0.144394
vt 0.291507 0.208493
vt 0.621837 1.000000
vt 0.565663 1.000000
vt 0.345784 0.030902
vt 0.415766 0.077662
vt 0.307154 0.112019
vt 0.272464 0.195768
vt 0.559337 1.000000
vt 0.503163 1.000000
vt 0.254648 0.010924
vt 0.337196 0.027344
vt 0.250000 0.100650
vt 0.250000 0.191300
vt 0.496837 1.000000
vt 0.440663 1.000000
vt 0.162804 0.027344
vt 0.245352 0.010924
vt 0.192846 0.112019
vt 0.227536 0.195768
vt 0.434337 1.000000
vt 0.378163 1.000000
vt 0.084234 0.077662
vt 0.154216 0.030902
vt 0.144394 0.144394
vt 0.208493 0.208493
vt 0.371837 1.000000
vt 0.315663 1.000000
vt 0.030902 0.154216
vt 0.077662 0.084234
vt 0.112019 0.192846
vt 0.195768 0.227536
vt 0.309337 1.000000
vt 0.253163 1.000000
vt 0.010924 0.245352
vt 0.027344 0.162804
vt 0.100650 0.250000
vt 0.191300 0.250000
vt 0.246837 1.000000
vt 0.190663 1.000000
vt 0.027344 0.337196
vt 0.010924 0.254648
vt 0.112019 0.307154
vt 0.195768 0.272463
vt 0.184337 1.000000
vt 0.128163 1.000000
vt 0.077662 0.415766
vt 0.030902 0.345784
vt 0.144394 0.355606
vt 0.208493 0.291507
vt 0.121837 1.000000
vt 0.065663 1.000000
vt 0.154216 0.469098
vt 0.084234 0.422338
vt 0.192846 0.387981
vt 0.227536 0.304232
vt 0.059337 1.000000
vt 0.003163 1.000000
vt 0.245352 0.489076
vt 0.162804 0.472656
vt 0.250000 0.308700
vt 0.750000 0.057496
vt 0.676332 0.072150
vt 0.750000 0.442504
vt 0.676332 0.427850
vt 0.658156 0.471731
vt 0.750000 0.490000
vt 0.613879 0.386121
vt 0.580294 0.419706
vt 0.572150 0.323668
vt 0.528269 0.341844
vt 0.557496 0.250000
vt 0.510000 0.250000
vt 0.572150 0.176332
vt 0.528269 0.158156
vt 0.613879 0.113879
vt 0.580294 0.080294
vt 0.658156 0.028269
vt 0.750000 0.010000
vt 0.823668 0.072150
vt 0.841844 0.028269
vt 0.886121 0.113879
vt 0.919706 0.080294
vt 0.927850 0.176332
vt 0.971731 0.158156
vt 0.942504 0.250000
vt 0.990000 0.250000
vt 0.927850 0.323668
vt 0.971731 0.341844
vt 0.886121 0.386121
vt 0.919706 0.419706
vt 0.823668 0.427850
vt 0.841844 0.471731
s 0
g off
f 1/1/1 2/2/1 4/3/1 3/4/1
f 3/4/2 4/3/2 8/5/2 7/6/2
f 7/6/3 8/5/3 6/7/3 5/8/3
f 5/8/4 6/7/4 2/9/4 1/10/4
f 3/11/5 7/6/5 5/8/5 1/12/5
f 9/1/3 11/4/3 12/3/3 10/2/3
f 11/4/2 15/6/2 16/5/2 12/3/2
f 15/6/1 13/8/1 14/7/1 16/5/1
f 13/8/4 9/10/4 10/9/4 14/7/4
f 11/11/5 9/12/5 13/8/5 15/6/5
s 1
f 65/13/6 72/14/7 66/15/8 59/16/9
f 17/17/10 24/18/11 25/7/12 18/19/13
f 18/19/13 25/7/12 26/20/14 19/21/15
f 19/21/15 26/20/14 27/9/16 20/22/17
f 20/23/17 27/2/16 28/24/18 21/25/19
f 21/25/19 28/24/18 29/3/20 22/26/21
f 22/26/21 29/3/20 30/27/22 23/28/23
f 37/29/24 44/30/25 38/31/26 31/32/27
f 24/18/11 31/32/27 32/33/28 25/7/12
f 25/7/12 32/33/28 33/34/29 26/20/14
f 26/20/14 33/34/29 34/35/30 27/9/16
f 27/2/16 34/36/30 35/37/31 28/24/18
f 28/24/18 35/37/31 36/38/32 29/3/20
f 29/3/20 36/38/32 37/29/24 30/27/22
f 44/30/25 51/39/33 45/40/34 38/31/26
f 31/32/27 38/31/26 39/41/35 32/33/28
f 32/33/28 39/41/35 40/42/36 33/34/29
f 33/34/29 40/42/36 41/43/5 34/35/30
f 34/36/30 41/44/5 42/45/37 35/37/31
f 35/37/31 42/45/37 43/46/38 36/38/32
f 36/38/32 43/46/38 44/30/25 37/29/24
f 51/39/33 58/47/39 52/48/40 45/40/34
f 38/31/26 45/40/34 46/49/41 39/41/35
f 39/41/35 46/49/41 47/50/42 40/42/36
f 40/42/36 47/50/42 48/51/43 41/43/5
f 41/44/5 48/52/43 49/53/44 42/45/37
f 42/45/37 49/53/44 50/54/45 43/46/38
f 43/46/38 50/54/45 51/39/33 44/30/25
f 58/47/39 65/55/6 59/56/9 52/48/40
f 45/40/34 52/48/40 53/57/46 46/49/41
f 46/49/41 53/57/46 54/58/47 47/50/42
f 47/50/42 54/58/47 55/59/48 48/51/43
f 48/52/43 55/60/48 56/61/49 49/53/44
f 49/53/44 56/61/49 57/62/50 50/54/45
f 50/54/45 57/62/50 58/47/39 51/39/33
f 79/63/51 23/28/23 17/17/10 73/64/52
f 52/48/40 59/56/9 60/65/53 53/57/46
f 53/57/46 60/65/53 61/66/54 54/58/47
f 54/58/47 61/66/54 62/67/55 55/59/48
f 55/60/48 62/68/55 63/69/56 56/61/49
f 56/61/49 63/69/56 64/70/57 57/62/50
f 57/62/50 64/70/57 65/55/6 58/47/39
f 59/16/9 66/15/8 67/71/58 60/72/53
f 60/72/53 67/71/58 68/73/59 61/74/54
f 61/74/54 68/73/59 69/75/60 62/76/55
f 62/77/55 69/78/60 70/79/61 63/80/56
f 63/80/56 70/79/61 71/81/62 64/82/57
f 64/82/57 71/81/62 72/14/7 65/13/6
f 23/28/23 30/27/22 24/18/11 17/17/10
f 73/64/52 17/17/10 18/19/13 74/83/63
f 74/83/63 18/19/13 19/21/15 75/84/64
f 75/84/64 19/21/15 20/22/17 76/85/65
f 76/86/65 20/23/17 21/25/19 77/87/66
f 77/87/66 21/25/19 22/26/21 78/88/67
f 78/88/67 22/26/21 23/28/23 79/63/51
f 81/89/68 142/90/69 97/91/70 80/92/71
f 82/93/72 103/94/73 106/95/74 93/96/75
f 93/96/75 106/95/74 109/97/76 84/98/77
f 84/98/77 109/97/76 112/99/78 90/100/79
f 90/100/79 112/99/78 115/101/80 86/5/81
f 86/5/81 115/101/80 118/102/82 87/103/83
f 87/103/83 118/102/82 121/104/84 88/105/85
f 88/105/85 121/104/84 124/106/86 89/107/87
f 89/107/87 124/106/86 127/108/88 85/6/89
f 85/6/89 127/108/88 130/109/90 91/110/91
f 91/110/91 130/109/90 133/111/92 92/112/93
f 92/112/93 133/111/92 136/113/94 83/114/95
f 83/114/95 136/113/94 139/115/96 94/11/97
f 94/11/97 139/115/96 142/90/69 81/89/68
f 80/116/71 97/117/70 100/118/98 95/119/99
f 85/6/89 91/110/91 150/110/100 151/6/101
f 95/119/99 100/118/98 103/120/73 82/93/72
f 100/118/98 97/117/70 99/121/102 102/122/103
f 102/123/103 99/124/102 98/125/104 101/126/105
f 101/126/105 98/125/104 96/127/106
f 103/120/73 100/118/98 102/128/103 105/129/107
f 105/130/107 102/131/103 101/126/105 104/132/108
f 104/132/108 101/126/105 96/133/106
f 106/95/74 103/94/73 105/134/107 108/135/109
f 108/136/109 105/137/107 104/132/108 107/138/110
f 107/138/110 104/132/108 96/139/106
f 109/97/76 106/95/74 108/140/109 111/141/111
f 111/142/111 108/143/109 107/138/110 110/144/112
f 110/144/112 107/138/110 96/145/106
f 112/99/78 109/97/76 111/146/111 114/147/113
f 114/148/113 111/149/111 110/144/112 113/150/114
f 113/150/114 110/144/112 96/151/106
f 115/101/80 112/99/78 114/152/113 117/153/115
f 117/154/115 114/155/113 113/150/114 116/156/116
f 116/156/116 113/150/114 96/157/106
f 118/102/82 115/101/80 117/158/115 120/159/117
f 120/160/117 117/161/115 116/156/116 119/162/118
f 119/162/118 116/156/116 96/163/106
f 121/104/84 118/102/82 120/164/117 123/165/119
f 123/166/119 120/167/117 119/162/118 122/168/120
f 122/168/120 119/162/118 96/169/106
f 124/106/86 121/104/84 123/170/119 126/171/121
f 126/172/121 123/173/119 122/168/120 125/174/122
f 125/174/122 122/168/120 96/175/106
f 127/108/88 124/106/86 126/176/121 129/177/123
f 129/178/123 126/179/121 125/174/122 128/180/124
f 128/180/124 125/174/122 96/181/106
f 130/109/90 127/108/88 129/182/123 132/183/125
f 132/184/125 129/185/123 128/180/124 131/186/126
f 131/186/126 128/180/124 96/187/106
f 133/111/92 130/109/90 132/188/125 135/189/127
f 135/190/127 132/191/125 131/186/126 134/192/128
f 134/192/128 131/186/126 96/193/106
f 136/113/94 133/111/92 135/194/127 138/195/129
f 138/196/129 135/197/127 134/192/128 137/198/130
f 137/198/130 134/192/128 96/199/106
f 139/115/96 136/113/94 138/200/129 141/201/131
f 141/202/131 138/203/129 137/198/130 140/204/132
f 140/204/132 137/198/130 96/205/106
f 142/90/69 139/115/96 141/206/131 144/207/133
f 144/208/133 141/209/131 140/204/132 143/210/134
f 143/210/134 140/204/132 96/211/106
f 97/91/70 142/90/69 144/212/133 99/213/102
f 99/214/102 144/215/133 143/210/134 98/125/104
f 98/125/104 143/210/134 96/216/106
s 2
f 148/114/135 147/11/136 179/11/137 180/114/138
s 1
f 80/116/71 95/119/99 160/119/139 146/116/140
f 81/89/68 80/92/71 146/92/140 145/89/141
f 90/100/79 86/5/81 155/5/142 156/100/143
f 94/11/97 81/89/68 145/89/141 147/11/136
f 84/98/77 90/100/79 156/100/143 157/98/144
f 89/107/87 85/6/89 151/6/101 152/107/145
f 88/105/85 89/107/87 152/107/145 153/105/146
f 83/114/95 94/11/97 147/11/136 148/114/135
f 93/96/75 84/98/77 157/98/144 158/96/147
f 92/112/93 83/114/95 148/114/135 149/112/148
f 82/93/72 93/96/75 158/96/147 159/93/149
f 87/103/83 88/105/85 153/105/146 154/103/150
f 86/5/81 87/103/83 154/103/150 155/5/142
f 91/110/91 92/112/93 149/112/148 150/110/100
f 95/119/99 82/93/72 159/93/149 160/119/139
f 169/217/151 168/218/152 200/218/153 201/217/154
s 2
f 156/100/143 155/5/142 187/5/155 188/100/156
f 149/112/148 148/114/135 180/114/138 181/112/157
f 157/98/144 156/100/143 188/100/156 189/98/158
f 150/110/100 149/112/148 181/112/157 182/110/159
f 158/96/147 157/98/144 189/98/158 190/96/160
f 151/6/101 150/110/100 182/110/159 183/6/161
f 159/93/149 158/96/147 190/96/160 191/93/162
f 152/107/145 151/6/101 183/6/161 184/107/163
f 160/119/139 159/93/149 191/93/162 192/119/164
f 153/105/146 152/107/145 184/107/163 185/105/165
f 145/89/141 146/92/140 178/92/166 177/89/167
f 146/116/140 160/119/139 192/119/164 178/116/166
f 154/103/150 153/105/146 185/105/165 186/103/168
f 147/11/136 145/89/141 177/89/167 179/11/137
f 155/5/142 154/103/150 186/103/168 187/5/155
s 4
f 162/219/169 161/220/170 177/221/167 178/222/166
f 161/220/170 163/223/171 179/224/137 177/221/167
f 163/223/171 164/225/172 180/226/138 179/224/137
f 164/225/172 165/227/173 181/228/157 180/226/138
f 165/227/173 166/229/174 182/230/159 181/228/157
f 166/229/174 167/231/175 183/232/161 182/230/159
f 167/231/175 168/218/152 184/233/163 183/232/161
f 168/218/152 169/217/151 185/234/165 184/233/163
f 169/217/151 170/235/176 186/236/168 185/234/165
f 170/235/176 171/237/177 187/238/155 186/236/168
f 171/237/177 172/239/178 188/240/156 187/238/155
f 172/239/178 173/241/179 189/242/158 188/240/156
f 173/241/179 174/243/180 190/244/160 189/242/158
f 174/243/180 175/245/181 191/246/162 190/244/160
f 175/245/181 176/247/182 192/248/164 191/246/162
f 176/247/182 162/219/169 178/222/166 192/248/164
s 1
f 161/220/170 162/219/169 194/219/183 193/220/184
f 162/219/169 176/247/182 208/247/185 194/219/183
f 170/235/176 169/217/151 201/217/154 202/235/186
f 163/223/171 161/220/170 193/220/184 195/223/187
f 171/237/177 170/235/176 202/235/186 203/237/188
f 164/225/172 163/223/171 195/223/187 196/225/189
f 172/239/178 171/237/177 203/237/188 204/239/190
f 165/227/173 164/225/172 196/225/189 197/227/191
f 173/241/179 172/239/178 204/239/190 205/241/192
f 166/229/174 165/227/173 197/227/191 198/229/193
f 174/243/180 173/241/179 205/241/192 206/243/194
f 167/231/175 166/229/174 198/229/193 199/231/195
f 175/245/181 174/243/180 206/243/194 207/245/196
f 168/218/152 167/231/175 199/231/195 200/218/153
f 176/247/182 175/245/181 207/245/196 208/247/185
f 30/27/22 37/29/24 31/32/27 24/18/11
