# Blender 4.0.1
# www.blender.org
g MainCharacter__Eye_Cylinder
v 0.000000 0.732375 0.579639
v 0.000000 0.732375 0.905013
v 0.280268 0.676626 0.579639
v 0.280268 0.676626 0.905013
v 0.517867 0.517867 0.579639
v 0.517867 0.517867 0.905013
v 0.676626 0.280268 0.579639
v 0.676626 0.280268 0.905013
v 0.732375 0.000000 0.579639
v 0.732375 -0.000000 0.905013
v 0.676626 -0.280268 0.579639
v 0.676626 -0.280268 0.905013
v 0.517867 -0.517867 0.579639
v 0.517867 -0.517867 0.905013
v 0.280268 -0.676626 0.579639
v 0.280268 -0.676626 0.905013
v 0.000000 -0.732375 0.579639
v 0.000000 -0.732375 0.905013
v -0.280268 -0.676626 0.579639
v -0.280268 -0.676626 0.905013
v -0.517867 -0.517867 0.579639
v -0.517867 -0.517867 0.905013
v -0.676626 -0.280268 0.579639
v -0.676626 -0.280268 0.905013
v -0.732375 0.000000 0.579639
v -0.732375 -0.000000 0.905013
v -0.676626 0.280268 0.579639
v -0.676626 0.280268 0.905013
v -0.517867 0.517867 0.579639
v -0.517867 0.517867 0.905013
v -0.280268 0.676626 0.579639
v -0.280268 0.676626 0.905013
v 0.247116 0.596591 1.038419
v 0.000000 0.645746 1.038419
v 0.456611 0.456611 1.038419
v 0.596591 0.247116 1.038419
v 0.645746 -0.000000 1.038419
v 0.596591 -0.247116 1.038419
v 0.456611 -0.456611 1.038419
v 0.247116 -0.596591 1.038419
v 0.000000 -0.645746 1.038419
v -0.247116 -0.596591 1.038419
v -0.456611 -0.456611 1.038419
v -0.596591 -0.247116 1.038419
v -0.645746 -0.000000 1.038419
v -0.596591 0.247116 1.038419
v -0.456611 0.456611 1.038419
v -0.247116 0.596591 1.038419
v 0.189717 0.458018 1.120540
v 0.350552 0.350552 1.120540
v 0.458018 0.189717 1.120540
v 0.495755 -0.000000 1.120540
v 0.350552 -0.350552 1.120540
v 0.189717 -0.458018 1.120540
v 0.000000 -0.495755 1.120540
v -0.189717 -0.458018 1.120540
v -0.350552 -0.350552 1.120540
v -0.458018 -0.189717 1.120540
v -0.495755 -0.000000 1.120540
v -0.350552 0.350552 1.120540
v -0.189717 0.458018 1.120540
v 0.073172 0.176653 1.190906
v 0.000000 0.191208 1.190906
v 0.135204 0.135204 1.190906
v 0.176653 0.073172 1.190906
v 0.191208 -0.000000 1.190906
v 0.176653 -0.073172 1.190906
v 0.135204 -0.135204 1.190906
v 0.073172 -0.176653 1.190906
v 0.000000 -0.191208 1.190906
v -0.073172 -0.176653 1.190906
v -0.135204 -0.135204 1.190906
v -0.176653 -0.073172 1.190906
v -0.191208 -0.000000 1.190906
v -0.176653 0.073172 1.190906
v -0.135204 0.135204 1.190906
v -0.073172 0.176653 1.190906
v 0.458018 -0.189717 1.120540
v -0.458018 0.189717 1.120540
v 0.000000 0.495755 1.120540
vn -0.0000 1.0000 -0.0000
vn 0.3827 0.9239 -0.0000
vn 0.7071 0.7071 -0.0000
vn 0.9239 0.3827 -0.0000
vn 1.0000 -0.0000 -0.0000
vn 0.9239 -0.3827 -0.0000
vn 0.7071 -0.7071 -0.0000
vn 0.3827 -0.9239 -0.0000
vn -0.0000 -1.0000 -0.0000
vn -0.3827 -0.9239 -0.0000
vn -0.7071 -0.7071 -0.0000
vn -0.9239 -0.3827 -0.0000
vn -1.0000 -0.0000 -0.0000
vn -0.9239 0.3827 -0.0000
vn -0.7071 0.7071 -0.0000
vn 0.3210 0.7748 0.5446
vn -0.0000 0.8387 0.5446
vn -0.0000 0.6958 0.7182
vn 0.2663 0.6429 0.7182
vn -0.3827 0.9239 -0.0000
vn -0.7748 0.3210 0.5446
vn -0.8387 -0.0000 0.5446
vn -0.6958 -0.0000 0.7182
vn -0.6429 0.2663 0.7182
vn 0.5930 -0.5930 0.5446
vn 0.7748 -0.3210 0.5446
vn 0.6429 -0.2663 0.7182
vn 0.4920 -0.4920 0.7182
vn -0.7748 -0.3210 0.5446
vn -0.5930 -0.5930 0.5446
vn -0.4920 -0.4920 0.7182
vn -0.6429 -0.2663 0.7182
vn -0.3210 0.7748 0.5446
vn -0.2663 0.6429 0.7182
vn 0.8387 -0.0000 0.5446
vn 0.7748 0.3210 0.5446
vn 0.6429 0.2663 0.7182
vn 0.6958 -0.0000 0.7182
vn -0.3210 -0.7748 0.5446
vn -0.0000 -0.8387 0.5446
vn -0.0000 -0.6958 0.7182
vn -0.2663 -0.6429 0.7182
vn -0.5930 0.5930 0.5446
vn -0.4920 0.4920 0.7182
vn 0.5930 0.5930 0.5446
vn 0.4920 0.4920 0.7182
vn 0.3210 -0.7748 0.5446
vn 0.2663 -0.6429 0.7182
vn 0.1419 -0.3425 0.9287
vn 0.2621 -0.2621 0.9287
vn 0.0900 -0.0900 0.9919
vn 0.0487 -0.1175 0.9919
vn 0.0487 0.1175 0.9919
vn -0.0000 0.1272 0.9919
vn -0.0487 0.1175 0.9919
vn -0.0900 0.0900 0.9919
vn -0.1175 0.0487 0.9919
vn -0.1272 -0.0000 0.9919
vn 0.1272 -0.0000 0.9919
vn 0.1175 0.0487 0.9919
vn 0.0900 0.0900 0.9919
vn -0.1419 0.3425 0.9287
vn -0.2621 0.2621 0.9287
vn -0.0000 -0.3707 0.9287
vn -0.0000 -0.1272 0.9919
vn 0.1419 0.3425 0.9287
vn -0.0000 0.3707 0.9287
vn -0.1419 -0.3425 0.9287
vn -0.0487 -0.1175 0.9919
vn 0.2621 0.2621 0.9287
vn -0.2621 -0.2621 0.9287
vn -0.0900 -0.0900 0.9919
vn 0.3425 0.1419 0.9287
vn -0.3425 -0.1419 0.9287
vn -0.1175 -0.0487 0.9919
vn 0.3707 -0.0000 0.9287
vn -0.3707 -0.0000 0.9287
vn 0.3425 -0.1419 0.9287
vn 0.1175 -0.0487 0.9919
vn -0.3425 0.1419 0.9287
vt 0.500000 0.558634
vt 0.522438 0.554170
vt 0.522438 0.554171
vt 0.541460 0.541460
vt 0.554171 0.522438
vt 0.558634 0.500000
vt 0.554171 0.477562
vt 0.541460 0.458540
vt 0.522438 0.445829
vt 0.500000 0.441366
vt 0.477562 0.445829
vt 0.458540 0.458540
vt 0.445829 0.477562
vt 0.445829 0.477562
vt 0.441366 0.500000
vt 0.445829 0.522438
vt 0.445829 0.522438
vt 0.458540 0.541460
vt 0.500000 0.551698
vt 0.519784 0.547763
vt 0.477562 0.554170
vt 0.477562 0.554171
vt 0.448302 0.500000
vt 0.452237 0.519784
vt 0.547763 0.480216
vt 0.536556 0.463444
vt 0.463444 0.463444
vt 0.452237 0.480216
vt 0.480216 0.547763
vt 0.547763 0.519784
vt 0.551698 0.500000
vt 0.500000 0.448302
vt 0.480216 0.452237
vt 0.463444 0.536556
vt 0.536556 0.536556
vt 0.519784 0.452237
vt 0.515189 0.463331
vt 0.528065 0.471935
vt 0.510824 0.489176
vt 0.505858 0.485857
vt 0.505858 0.514143
vt 0.500000 0.515308
vt 0.494142 0.514143
vt 0.489176 0.510824
vt 0.485857 0.505858
vt 0.484692 0.500000
vt 0.515308 0.500000
vt 0.514143 0.505858
vt 0.510824 0.510824
vt 0.484811 0.536669
vt 0.471935 0.528065
vt 0.500000 0.460310
vt 0.500000 0.484692
vt 0.515189 0.536669
vt 0.500000 0.539690
vt 0.484811 0.463331
vt 0.494142 0.485857
vt 0.528065 0.528065
vt 0.471935 0.471935
vt 0.489176 0.489176
vt 0.536669 0.515189
vt 0.463331 0.484811
vt 0.485857 0.494142
vt 0.539690 0.500000
vt 0.460310 0.500000
vt 0.536669 0.484811
vt 0.514143 0.494142
vt 0.463331 0.515189
s 1
g off
f 1/1/1 2/1/1 4/2/2 3/3/2
f 3/3/2 4/2/2 6/4/3 5/4/3
f 5/4/3 6/4/3 8/5/4 7/5/4
f 7/5/4 8/5/4 10/6/5 9/6/5
f 9/6/5 10/6/5 12/7/6 11/7/6
f 11/7/6 12/7/6 14/8/7 13/8/7
f 13/8/7 14/8/7 16/9/8 15/9/8
f 15/9/8 16/9/8 18/10/9 17/10/9
f 17/10/9 18/10/9 20/11/10 19/11/10
f 19/11/10 20/11/10 22/12/11 21/12/11
f 21/12/11 22/12/11 24/13/12 23/14/12
f 23/14/12 24/13/12 26/15/13 25/15/13
f 25/15/13 26/15/13 28/16/14 27/17/14
f 27/17/14 28/16/14 30/18/15 29/18/15
f 4/2/16 2/1/17 34/19/18 33/20/19
f 29/18/15 30/18/15 32/21/20 31/22/20
f 31/22/20 32/21/20 2/1/1 1/1/1
f 28/16/21 26/15/22 45/23/23 46/24/24
f 14/8/25 12/7/26 38/25/27 39/26/28
f 24/13/29 22/12/30 43/27/31 44/28/32
f 2/1/17 32/21/33 48/29/34 34/19/18
f 10/6/35 8/5/36 36/30/37 37/31/38
f 20/11/39 18/10/40 41/32/41 42/33/42
f 30/18/43 28/16/21 46/24/24 47/34/44
f 6/4/45 4/2/16 33/20/19 35/35/46
f 16/9/47 14/8/25 39/26/28 40/36/48
f 26/15/22 24/13/29 44/28/32 45/23/23
f 12/7/26 10/6/35 37/31/38 38/25/27
f 22/12/30 20/11/39 42/33/42 43/27/31
f 32/21/33 30/18/43 47/34/44 48/29/34
f 8/5/36 6/4/45 35/35/46 36/30/37
f 18/10/40 16/9/47 40/36/48 41/32/41
f 54/37/49 53/38/50 68/39/51 69/40/52
f 62/41/53 63/42/54 77/43/55 76/44/56 75/45/57 74/46/58 66/47/59 65/48/60 64/49/61
f 61/50/62 60/51/63 76/44/56 77/43/55
f 55/52/64 54/37/49 69/40/52 70/53/65
f 49/54/66 80/55/67 63/42/54 62/41/53
f 80/55/67 61/50/62 77/43/55 63/42/54
f 56/56/68 55/52/64 70/53/65 71/57/69
f 50/58/70 49/54/66 62/41/53 64/49/61
f 57/59/71 56/56/68 71/57/69 72/60/72
f 51/61/73 50/58/70 64/49/61 65/48/60
f 58/62/74 57/59/71 72/60/72 73/63/75
f 52/64/76 51/61/73 65/48/60 66/47/59
f 59/65/77 58/62/74 73/63/75 74/46/58
f 78/66/78 52/64/76 66/47/59 67/67/79
f 79/68/80 59/65/77 74/46/58 75/45/57
f 53/38/50 78/66/78 67/67/79 68/39/51
f 60/51/63 79/68/80 75/45/57 76/44/56
f 46/24/24 45/23/23 59/65/77 79/68/80
f 38/25/27 37/31/38 52/64/76 78/66/78
f 45/23/23 44/28/32 58/62/74 59/65/77
f 37/31/38 36/30/37 51/61/73 52/64/76
f 44/28/32 43/27/31 57/59/71 58/62/74
f 36/30/37 35/35/46 50/58/70 51/61/73
f 43/27/31 42/33/42 56/56/68 57/59/71
f 35/35/46 33/20/19 49/54/66 50/58/70
f 42/33/42 41/32/41 55/52/64 56/56/68
f 34/19/18 48/29/34 61/50/62 80/55/67
f 33/20/19 34/19/18 80/55/67 49/54/66
f 41/32/41 40/36/48 54/37/49 55/52/64
f 48/29/34 47/34/44 60/51/63 61/50/62
f 40/36/48 39/26/28 53/38/50 54/37/49
f 47/34/44 46/24/24 79/68/80 60/51/63
f 39/26/28 38/25/27 78/66/78 53/38/50
f 66/47/59 74/46/58 73/63/75 72/60/72 71/57/69 70/53/65 69/40/52 68/39/51 67/67/79
