# Blender 4.0.1
# www.blender.org
g ClockTower-01_Cube.009
v -2.712445 41.227516 4.022936
v -5.000001 3.281083 5.000001
v -4.022936 43.254932 -4.022936
v -5.000001 3.281083 -5.000001
v 2.712445 41.227516 4.022936
v 5.000001 3.281083 5.000001
v 4.022936 43.254932 -4.022936
v 5.000001 3.281083 -5.000001
v -4.022936 43.254932 4.022936
v 4.022936 43.254932 4.022936
v -3.371227 5.800907 5.000001
v 3.371227 5.800907 5.000001
v 3.371227 5.800907 0.491925
v -3.371227 5.800907 0.491925
v -2.712445 41.227516 0.395796
v 2.712445 41.227516 0.395796
v -6.404550 0.063092 6.404550
v -6.404550 3.430811 6.404550
v -6.404550 0.063092 -6.404550
v -6.404550 3.430811 -6.404550
v 6.404550 0.063092 6.404550
v 6.404550 3.430811 6.404550
v 6.404550 0.063092 -6.404550
v 6.404550 3.430811 -6.404550
v -4.742916 42.427269 4.742916
v -4.742916 43.835167 4.742916
v -4.742916 42.427269 -4.742916
v -4.742916 43.835167 -4.742916
v 4.742916 42.427269 4.742916
v 4.742916 43.835167 4.742916
v 4.742916 42.427269 -4.742916
v 4.742916 43.835167 -4.742916
v -4.799315 2.890718 4.362253
v -3.861466 42.671093 3.509811
v -4.548576 2.890718 4.412127
v -3.659725 42.671093 3.549940
v -4.336010 2.890718 4.554160
v -3.488697 42.671093 3.664217
v -4.193977 2.890718 4.766726
v -3.374419 42.671093 3.835246
v -4.144102 2.890718 5.017465
v -3.334291 42.671093 4.036987
v -4.193977 2.890718 5.268204
v -3.374419 42.671093 4.238728
v -4.336010 2.890718 5.480771
v -3.488697 42.671093 4.409756
v -4.548576 2.890718 5.622803
v -3.659725 42.671093 4.524034
v -4.799315 2.890718 5.672678
v -3.861466 42.671093 4.564163
v -5.050054 2.890718 5.622803
v -4.063208 42.671093 4.524034
v -5.262620 2.890718 5.480771
v -4.234235 42.671093 4.409756
v -5.404653 2.890718 5.268204
v -4.348513 42.671093 4.238728
v -5.454528 2.890718 5.017465
v -4.388642 42.671093 4.036987
v -5.404653 2.890718 4.766726
v -4.348513 42.671093 3.835246
v -5.262620 2.890718 4.554160
v -4.234235 42.671093 3.664217
v -5.050054 2.890718 4.412127
v -4.063208 42.671093 3.549940
v 4.799315 2.890718 4.362253
v 3.861466 42.671093 3.509811
v 4.548576 2.890718 4.412127
v 3.659725 42.671093 3.549940
v 4.336010 2.890718 4.554160
v 3.488697 42.671093 3.664217
v 4.193977 2.890718 4.766726
v 3.374419 42.671093 3.835246
v 4.144102 2.890718 5.017465
v 3.334291 42.671093 4.036987
v 4.193977 2.890718 5.268204
v 3.374419 42.671093 4.238728
v 4.336010 2.890718 5.480771
v 3.488697 42.671093 4.409756
v 4.548576 2.890718 5.622803
v 3.659725 42.671093 4.524034
v 4.799315 2.890718 5.672678
v 3.861466 42.671093 4.564163
v 5.050054 2.890718 5.622803
v 4.063208 42.671093 4.524034
v 5.262620 2.890718 5.480771
v 4.234235 42.671093 4.409756
v 5.404653 2.890718 5.268204
v 4.348513 42.671093 4.238728
v 5.454528 2.890718 5.017465
v 4.388642 42.671093 4.036987
v 5.404653 2.890718 4.766726
v 4.348513 42.671093 3.835246
v 5.262620 2.890718 4.554160
v 4.234235 42.671093 3.664217
v 5.050054 2.890718 4.412127
v 4.063208 42.671093 3.549940
v -4.799315 2.890718 -4.362253
v -3.861466 42.671093 -3.509811
v -4.548576 2.890718 -4.412127
v -3.659725 42.671093 -3.549940
v -4.336010 2.890718 -4.554160
v -3.488697 42.671093 -3.664217
v -4.193977 2.890718 -4.766726
v -3.374419 42.671093 -3.835246
v -4.144102 2.890718 -5.017465
v -3.334291 42.671093 -4.036987
v -4.193977 2.890718 -5.268204
v -3.374419 42.671093 -4.238728
v -4.336010 2.890718 -5.480771
v -3.488697 42.671093 -4.409756
v -4.548576 2.890718 -5.622803
v -3.659725 42.671093 -4.524034
v -4.799315 2.890718 -5.672678
v -3.861466 42.671093 -4.564163
v -5.050054 2.890718 -5.622803
v -4.063208 42.671093 -4.524034
v -5.262620 2.890718 -5.480771
v -4.234235 42.671093 -4.409756
v -5.404653 2.890718 -5.268204
v -4.348513 42.671093 -4.238728
v -5.454528 2.890718 -5.017465
v -4.388642 42.671093 -4.036987
v -5.404653 2.890718 -4.766726
v -4.348513 42.671093 -3.835246
v -5.262620 2.890718 -4.554160
v -4.234235 42.671093 -3.664217
v -5.050054 2.890718 -4.412127
v -4.063208 42.671093 -3.549940
v 4.799315 2.890718 -4.362253
v 3.861466 42.671093 -3.509811
v 4.548576 2.890718 -4.412127
v 3.659725 42.671093 -3.549940
v 4.336010 2.890718 -4.554160
v 3.488697 42.671093 -3.664217
v 4.193977 2.890718 -4.766726
v 3.374419 42.671093 -3.835246
v 4.144102 2.890718 -5.017465
v 3.334291 42.671093 -4.036987
v 4.193977 2.890718 -5.268204
v 3.374419 42.671093 -4.238728
v 4.336010 2.890718 -5.480771
v 3.488697 42.671093 -4.409756
v 4.548576 2.890718 -5.622803
v 3.659725 42.671093 -4.524034
v 4.799315 2.890718 -5.672678
v 3.861466 42.671093 -4.564163
v 5.050054 2.890718 -5.622803
v 4.063208 42.671093 -4.524034
v 5.262620 2.890718 -5.480771
v 4.234235 42.671093 -4.409756
v 5.404653 2.890718 -5.268204
v 4.348513 42.671093 -4.238728
v 5.454528 2.890718 -5.017465
v 4.388642 42.671093 -4.036987
v 5.404653 2.890718 -4.766726
v 4.348513 42.671093 -3.835246
v 5.262620 2.890718 -4.554160
v 4.234235 42.671093 -3.664217
v 5.050054 2.890718 -4.412127
v 4.063208 42.671093 -3.549940
v -4.022935 51.731686 4.022935
v -4.022935 43.704231 4.022935
v -4.022935 51.731686 -4.022935
v -4.022935 43.704231 -4.022935
v 4.022935 51.731686 4.022935
v 4.022935 43.704231 4.022935
v 4.022935 51.731686 -4.022935
v 4.022935 43.704231 -4.022935
v -4.742916 51.474106 4.742916
v -4.742916 52.882004 4.742916
v -4.742916 51.474106 -4.742916
v -4.742916 52.882004 -4.742916
v 4.742916 51.474106 4.742916
v 4.742916 52.882004 4.742916
v 4.742916 51.474106 -4.742916
v 4.742916 52.882004 -4.742916
v -4.054014 52.768856 4.054014
v -4.054014 55.014248 4.054014
v -4.054014 52.768856 -4.054014
v -4.054014 55.014248 -4.054014
v 4.054014 52.768856 4.054014
v 4.054014 55.014248 4.054014
v 4.054014 52.768856 -4.054014
v 4.054014 55.014248 -4.054014
v -2.843790 54.916401 2.843790
v -2.843790 56.748779 2.843790
v -2.843790 54.916401 -2.843790
v -2.843790 56.748779 -2.843790
v 2.843790 54.916401 2.843790
v 2.843790 56.748779 2.843790
v 2.843790 54.916401 -2.843790
v 2.843790 56.748779 -2.843790
v -0.590595 56.603580 0.590595
v -0.347394 62.961201 0.347394
v -0.590595 56.603580 -0.590595
v -0.347394 62.961201 -0.347394
v 0.590595 56.603580 0.590595
v 0.347394 62.961201 0.347394
v 0.590595 56.603580 -0.590595
v 0.347394 62.961201 -0.347394
v -3.861466 43.342525 3.509811
v -3.861466 51.922844 3.509811
v -3.659725 43.342525 3.549940
v -3.659725 51.922844 3.549940
v -3.488697 43.342525 3.664217
v -3.488697 51.922844 3.664217
v -3.374419 43.342525 3.835246
v -3.374419 51.922844 3.835246
v -3.334291 43.342525 4.036987
v -3.334291 51.922844 4.036987
v -3.374419 43.342525 4.238728
v -3.374419 51.922844 4.238728
v -3.488697 43.342525 4.409756
v -3.488697 51.922844 4.409756
v -3.659725 43.342525 4.524034
v -3.659725 51.922844 4.524034
v -3.861466 43.342525 4.564163
v -3.861466 51.922844 4.564163
v -4.063208 43.342525 4.524034
v -4.063208 51.922844 4.524034
v -4.234235 43.342525 4.409756
v -4.234235 51.922844 4.409756
v -4.348513 43.342525 4.238728
v -4.348513 51.922844 4.238728
v -4.388642 43.342525 4.036987
v -4.388642 51.922844 4.036987
v -4.348513 43.342525 3.835246
v -4.348513 51.922844 3.835246
v -4.234235 43.342525 3.664217
v -4.234235 51.922844 3.664217
v -4.063208 43.342525 3.549940
v -4.063208 51.922844 3.549940
v 3.861466 43.342525 3.509811
v 3.861466 51.922844 3.509811
v 3.659725 43.342525 3.549940
v 3.659725 51.922844 3.549940
v 3.488697 43.342525 3.664217
v 3.488697 51.922844 3.664217
v 3.374419 43.342525 3.835246
v 3.374419 51.922844 3.835246
v 3.334291 43.342525 4.036987
v 3.334291 51.922844 4.036987
v 3.374419 43.342525 4.238728
v 3.374419 51.922844 4.238728
v 3.488697 43.342525 4.409756
v 3.488697 51.922844 4.409756
v 3.659725 43.342525 4.524034
v 3.659725 51.922844 4.524034
v 3.861466 43.342525 4.564163
v 3.861466 51.922844 4.564163
v 4.063208 43.342525 4.524034
v 4.063208 51.922844 4.524034
v 4.234235 43.342525 4.409756
v 4.234235 51.922844 4.409756
v 4.348513 43.342525 4.238728
v 4.348513 51.922844 4.238728
v 4.388642 43.342525 4.036987
v 4.388642 51.922844 4.036987
v 4.348513 43.342525 3.835246
v 4.348513 51.922844 3.835246
v 4.234235 43.342525 3.664217
v 4.234235 51.922844 3.664217
v 4.063208 43.342525 3.549940
v 4.063208 51.922844 3.549940
v -3.861466 43.342525 -3.509811
v -3.861466 51.922844 -3.509811
v -3.659725 43.342525 -3.549940
v -3.659725 51.922844 -3.549940
v -3.488697 43.342525 -3.664217
v -3.488697 51.922844 -3.664217
v -3.374419 43.342525 -3.835246
v -3.374419 51.922844 -3.835246
v -3.334291 43.342525 -4.036987
v -3.334291 51.922844 -4.036987
v -3.374419 43.342525 -4.238728
v -3.374419 51.922844 -4.238728
v -3.488697 43.342525 -4.409756
v -3.488697 51.922844 -4.409756
v -3.659725 43.342525 -4.524034
v -3.659725 51.922844 -4.524034
v -3.861466 43.342525 -4.564163
v -3.861466 51.922844 -4.564163
v -4.063208 43.342525 -4.524034
v -4.063208 51.922844 -4.524034
v -4.234235 43.342525 -4.409756
v -4.234235 51.922844 -4.409756
v -4.348513 43.342525 -4.238728
v -4.348513 51.922844 -4.238728
v -4.388642 43.342525 -4.036987
v -4.388642 51.922844 -4.036987
v -4.348513 43.342525 -3.835246
v -4.348513 51.922844 -3.835246
v -4.234235 43.342525 -3.664217
v -4.234235 51.922844 -3.664217
v -4.063208 43.342525 -3.549940
v -4.063208 51.922844 -3.549940
v 3.861466 43.342525 -3.509811
v 3.861466 51.922844 -3.509811
v 3.659725 43.342525 -3.549940
v 3.659725 51.922844 -3.549940
v 3.488697 43.342525 -3.664217
v 3.488697 51.922844 -3.664217
v 3.374419 43.342525 -3.835246
v 3.374419 51.922844 -3.835246
v 3.334291 43.342525 -4.036987
v 3.334291 51.922844 -4.036987
v 3.374419 43.342525 -4.238728
v 3.374419 51.922844 -4.238728
v 3.488697 43.342525 -4.409756
v 3.488697 51.922844 -4.409756
v 3.659725 43.342525 -4.524034
v 3.659725 51.922844 -4.524034
v 3.861466 43.342525 -4.564163
v 3.861466 51.922844 -4.564163
v 4.063208 43.342525 -4.524034
v 4.063208 51.922844 -4.524034
v 4.234235 43.342525 -4.409756
v 4.234235 51.922844 -4.409756
v 4.348513 43.342525 -4.238728
v 4.348513 51.922844 -4.238728
v 4.388642 43.342525 -4.036987
v 4.388642 51.922844 -4.036987
v 4.348513 43.342525 -3.835246
v 4.348513 51.922844 -3.835246
v 4.234235 43.342525 -3.664217
v 4.234235 51.922844 -3.664217
v 4.063208 43.342525 -3.549940
v 4.063208 51.922844 -3.549940
vn -0.9997 0.0244 -0.0000
vn -0.0000 0.0244 -0.9997
vn 0.9997 0.0244 -0.0000
vn -0.0000 -1.0000 -0.0000
vn -0.0000 1.0000 -0.0000
vn -0.0044 0.0260 0.9997
vn 0.0044 0.0260 0.9997
vn -0.0000 -0.0000 1.0000
vn -0.0000 0.0027 1.0000
vn 0.9998 -0.0186 -0.0000
vn -0.9998 -0.0186 -0.0000
vn -1.0000 -0.0000 -0.0000
vn -0.0000 -0.0000 -1.0000
vn 1.0000 -0.0000 -0.0000
vn 0.1950 -0.0256 -0.9805
vn 0.5553 -0.0304 -0.8311
vn 0.8311 -0.0301 -0.5553
vn 0.9805 -0.0248 -0.1950
vn 0.9807 -0.0152 0.1951
vn 0.8315 -0.0028 0.5556
vn 0.5555 0.0106 0.8314
vn 0.1950 0.0227 0.9805
vn -0.1950 0.0319 0.9803
vn -0.5552 0.0367 0.8309
vn -0.8309 0.0364 0.5552
vn -0.9803 0.0311 0.1950
vn -0.9806 0.0215 -0.1950
vn -0.8314 0.0091 -0.5555
vn -0.5556 -0.0042 -0.8315
vn -0.1951 -0.0164 -0.9807
vn -0.1950 -0.0256 -0.9805
vn -0.5553 -0.0304 -0.8311
vn -0.8311 -0.0301 -0.5553
vn -0.9805 -0.0248 -0.1950
vn -0.9807 -0.0152 0.1951
vn -0.8315 -0.0028 0.5556
vn -0.5555 0.0106 0.8314
vn -0.1950 0.0227 0.9805
vn 0.1950 0.0319 0.9803
vn 0.5552 0.0367 0.8309
vn 0.8309 0.0364 0.5552
vn 0.9803 0.0311 0.1950
vn 0.9806 0.0215 -0.1950
vn 0.8314 0.0091 -0.5555
vn 0.5556 -0.0042 -0.8315
vn 0.1951 -0.0164 -0.9807
vn 0.1950 -0.0256 0.9805
vn 0.5553 -0.0304 0.8311
vn 0.8311 -0.0301 0.5553
vn 0.9805 -0.0248 0.1950
vn 0.9807 -0.0152 -0.1951
vn 0.8315 -0.0028 -0.5556
vn 0.5555 0.0106 -0.8314
vn 0.1950 0.0227 -0.9805
vn -0.1950 0.0319 -0.9803
vn -0.5552 0.0367 -0.8309
vn -0.8309 0.0364 -0.5552
vn -0.9803 0.0311 -0.1950
vn -0.9806 0.0215 0.1950
vn -0.8314 0.0091 0.5555
vn -0.5556 -0.0042 0.8315
vn -0.1951 -0.0164 0.9807
vn -0.1950 -0.0256 0.9805
vn -0.5553 -0.0304 0.8311
vn -0.8311 -0.0301 0.5553
vn -0.9805 -0.0248 0.1950
vn -0.9807 -0.0152 -0.1951
vn -0.8315 -0.0028 -0.5556
vn -0.5555 0.0106 -0.8314
vn -0.1950 0.0227 -0.9805
vn 0.1950 0.0319 -0.9803
vn 0.5552 0.0367 -0.8309
vn 0.8309 0.0364 -0.5552
vn 0.9803 0.0311 -0.1950
vn 0.9806 0.0215 0.1950
vn 0.8314 0.0091 0.5555
vn 0.5556 -0.0042 0.8315
vn 0.1951 -0.0164 0.9807
vn -0.9993 0.0382 -0.0000
vn -0.0000 0.0382 -0.9993
vn 0.9993 0.0382 -0.0000
vn -0.0000 0.0382 0.9993
vn 0.1951 -0.0000 -0.9808
vn 0.5556 -0.0000 -0.8315
vn 0.8315 -0.0000 -0.5556
vn 0.9808 -0.0000 -0.1951
vn 0.9808 -0.0000 0.1951
vn 0.8315 -0.0000 0.5556
vn 0.5556 -0.0000 0.8315
vn 0.1951 -0.0000 0.9808
vn -0.1951 -0.0000 0.9808
vn -0.5556 -0.0000 0.8315
vn -0.8315 -0.0000 0.5556
vn -0.9808 -0.0000 0.1951
vn -0.9808 -0.0000 -0.1951
vn -0.8315 -0.0000 -0.5556
vn -0.5556 -0.0000 -0.8315
vn -0.1951 -0.0000 -0.9808
vt 0.375000 0.000000
vt 0.375000 0.250000
vt 0.625000 0.250000
vt 0.625000 0.000000
vt 0.375000 0.500000
vt 0.625000 0.500000
vt 0.375000 0.750000
vt 0.625000 0.750000
vt 0.388627 0.986373
vt 0.388627 0.763627
vt 0.125000 0.500000
vt 0.125000 0.750000
vt 0.375000 1.000000
vt 0.625000 1.000000
vt 0.611373 0.986373
vt 0.611373 0.763627
vt 0.875000 0.500000
vt 0.875000 0.750000
vt 1.000000 0.500000
vt 1.000000 1.000000
vt 0.937500 1.000000
vt 0.937500 0.500000
vt 0.875000 1.000000
vt 0.812500 1.000000
vt 0.812500 0.500000
vt 0.750000 1.000000
vt 0.750000 0.500000
vt 0.687500 1.000000
vt 0.687500 0.500000
vt 0.562500 1.000000
vt 0.562500 0.500000
vt 0.500000 1.000000
vt 0.500000 0.500000
vt 0.437500 1.000000
vt 0.437500 0.500000
vt 0.312500 1.000000
vt 0.312500 0.500000
vt 0.250000 1.000000
vt 0.250000 0.500000
vt 0.187500 1.000000
vt 0.187500 0.500000
vt 0.125000 1.000000
vt 0.062500 1.000000
vt 0.062500 0.500000
vt 0.000000 1.000000
vt 0.000000 0.500000
s 0
g off
f 9/1/1 3/2/1 4/3/1 2/4/1
f 3/2/2 7/5/2 8/6/2 4/3/2
f 7/5/3 10/7/3 6/8/3 8/6/3
f 1/9/4 15/9/4 16/10/4 5/10/4
f 3/11/5 9/12/5 10/7/5 7/5/5
f 1/9/6 9/13/6 2/14/6 11/15/6
f 12/16/7 6/8/7 10/7/7 5/10/7
f 5/10/8 10/7/8 9/13/8 1/9/8
f 11/15/8 2/14/8 6/8/8 12/16/8
f 16/10/9 15/9/9 14/15/9 13/16/9
f 11/15/10 14/15/10 15/9/10 1/9/10
f 5/10/11 16/10/11 13/16/11 12/16/11
f 12/16/5 13/16/5 14/15/5 11/15/5
f 17/1/12 18/4/12 20/3/12 19/2/12
f 19/2/13 20/3/13 24/6/13 23/5/13
f 23/5/14 24/6/14 22/8/14 21/7/14
f 21/7/8 22/8/8 18/14/8 17/13/8
f 19/11/4 23/5/4 21/7/4 17/12/4
f 24/6/5 20/17/5 18/18/5 22/8/5
f 25/1/12 26/4/12 28/3/12 27/2/12
f 27/2/13 28/3/13 32/6/13 31/5/13
f 31/5/14 32/6/14 30/8/14 29/7/14
f 29/7/8 30/8/8 26/14/8 25/13/8
f 27/11/4 31/5/4 29/7/4 25/12/4
f 32/6/5 28/17/5 26/18/5 30/8/5
f 33/19/15 34/20/15 36/21/15 35/22/15
f 35/22/16 36/21/16 38/23/16 37/17/16
f 37/17/17 38/23/17 40/24/17 39/25/17
f 39/25/18 40/24/18 42/26/18 41/27/18
f 41/27/19 42/26/19 44/28/19 43/29/19
f 43/29/20 44/28/20 46/14/20 45/6/20
f 45/6/21 46/14/21 48/30/21 47/31/21
f 47/31/22 48/30/22 50/32/22 49/33/22
f 49/33/23 50/32/23 52/34/23 51/35/23
f 51/35/24 52/34/24 54/13/24 53/5/24
f 53/5/25 54/13/25 56/36/25 55/37/25
f 55/37/26 56/36/26 58/38/26 57/39/26
f 57/39/27 58/38/27 60/40/27 59/41/27
f 59/41/28 60/40/28 62/42/28 61/11/28
f 61/11/29 62/42/29 64/43/29 63/44/29
f 63/44/30 64/43/30 34/45/30 33/46/30
f 65/19/31 67/22/31 68/21/31 66/20/31
f 67/22/32 69/17/32 70/23/32 68/21/32
f 69/17/33 71/25/33 72/24/33 70/23/33
f 71/25/34 73/27/34 74/26/34 72/24/34
f 73/27/35 75/29/35 76/28/35 74/26/35
f 75/29/36 77/6/36 78/14/36 76/28/36
f 77/6/37 79/31/37 80/30/37 78/14/37
f 79/31/38 81/33/38 82/32/38 80/30/38
f 81/33/39 83/35/39 84/34/39 82/32/39
f 83/35/40 85/5/40 86/13/40 84/34/40
f 85/5/41 87/37/41 88/36/41 86/13/41
f 87/37/42 89/39/42 90/38/42 88/36/42
f 89/39/43 91/41/43 92/40/43 90/38/43
f 91/41/44 93/11/44 94/42/44 92/40/44
f 93/11/45 95/44/45 96/43/45 94/42/45
f 95/44/46 65/46/46 66/45/46 96/43/46
f 97/19/47 99/22/47 100/21/47 98/20/47
f 99/22/48 101/17/48 102/23/48 100/21/48
f 101/17/49 103/25/49 104/24/49 102/23/49
f 103/25/50 105/27/50 106/26/50 104/24/50
f 105/27/51 107/29/51 108/28/51 106/26/51
f 107/29/52 109/6/52 110/14/52 108/28/52
f 109/6/53 111/31/53 112/30/53 110/14/53
f 111/31/54 113/33/54 114/32/54 112/30/54
f 113/33/55 115/35/55 116/34/55 114/32/55
f 115/35/56 117/5/56 118/13/56 116/34/56
f 117/5/57 119/37/57 120/36/57 118/13/57
f 119/37/58 121/39/58 122/38/58 120/36/58
f 121/39/59 123/41/59 124/40/59 122/38/59
f 123/41/60 125/11/60 126/42/60 124/40/60
f 125/11/61 127/44/61 128/43/61 126/42/61
f 127/44/62 97/46/62 98/45/62 128/43/62
f 129/19/63 130/20/63 132/21/63 131/22/63
f 131/22/64 132/21/64 134/23/64 133/17/64
f 133/17/65 134/23/65 136/24/65 135/25/65
f 135/25/66 136/24/66 138/26/66 137/27/66
f 137/27/67 138/26/67 140/28/67 139/29/67
f 139/29/68 140/28/68 142/14/68 141/6/68
f 141/6/69 142/14/69 144/30/69 143/31/69
f 143/31/70 144/30/70 146/32/70 145/33/70
f 145/33/71 146/32/71 148/34/71 147/35/71
f 147/35/72 148/34/72 150/13/72 149/5/72
f 149/5/73 150/13/73 152/36/73 151/37/73
f 151/37/74 152/36/74 154/38/74 153/39/74
f 153/39/75 154/38/75 156/40/75 155/41/75
f 155/41/76 156/40/76 158/42/76 157/11/76
f 157/11/77 158/42/77 160/43/77 159/44/77
f 159/44/78 160/43/78 130/45/78 129/46/78
f 161/1/12 163/2/12 164/3/12 162/4/12
f 163/2/13 167/5/13 168/6/13 164/3/13
f 167/5/14 165/7/14 166/8/14 168/6/14
f 165/7/8 161/13/8 162/14/8 166/8/8
f 163/11/5 161/12/5 165/7/5 167/5/5
f 169/1/12 170/4/12 172/3/12 171/2/12
f 171/2/13 172/3/13 176/6/13 175/5/13
f 175/5/14 176/6/14 174/8/14 173/7/14
f 173/7/8 174/8/8 170/14/8 169/13/8
f 171/11/4 175/5/4 173/7/4 169/12/4
f 176/6/5 172/17/5 170/18/5 174/8/5
f 177/1/12 178/4/12 180/3/12 179/2/12
f 179/2/13 180/3/13 184/6/13 183/5/13
f 183/5/14 184/6/14 182/8/14 181/7/14
f 181/7/8 182/8/8 178/14/8 177/13/8
f 184/6/5 180/17/5 178/18/5 182/8/5
f 185/1/12 186/4/12 188/3/12 187/2/12
f 187/2/13 188/3/13 192/6/13 191/5/13
f 191/5/14 192/6/14 190/8/14 189/7/14
f 189/7/8 190/8/8 186/14/8 185/13/8
f 192/6/5 188/17/5 186/18/5 190/8/5
f 193/1/79 194/4/79 196/3/79 195/2/79
f 195/2/80 196/3/80 200/6/80 199/5/80
f 199/5/81 200/6/81 198/8/81 197/7/81
f 197/7/82 198/8/82 194/14/82 193/13/82
f 200/6/5 196/17/5 194/18/5 198/8/5
f 201/19/83 202/20/83 204/21/83 203/22/83
f 203/22/84 204/21/84 206/23/84 205/17/84
f 205/17/85 206/23/85 208/24/85 207/25/85
f 207/25/86 208/24/86 210/26/86 209/27/86
f 209/27/87 210/26/87 212/28/87 211/29/87
f 211/29/88 212/28/88 214/14/88 213/6/88
f 213/6/89 214/14/89 216/30/89 215/31/89
f 215/31/90 216/30/90 218/32/90 217/33/90
f 217/33/91 218/32/91 220/34/91 219/35/91
f 219/35/92 220/34/92 222/13/92 221/5/92
f 221/5/93 222/13/93 224/36/93 223/37/93
f 223/37/94 224/36/94 226/38/94 225/39/94
f 225/39/95 226/38/95 228/40/95 227/41/95
f 227/41/96 228/40/96 230/42/96 229/11/96
f 229/11/97 230/42/97 232/43/97 231/44/97
f 231/44/98 232/43/98 202/45/98 201/46/98
f 233/19/98 235/22/98 236/21/98 234/20/98
f 235/22/97 237/17/97 238/23/97 236/21/97
f 237/17/96 239/25/96 240/24/96 238/23/96
f 239/25/95 241/27/95 242/26/95 240/24/95
f 241/27/94 243/29/94 244/28/94 242/26/94
f 243/29/93 245/6/93 246/14/93 244/28/93
f 245/6/92 247/31/92 248/30/92 246/14/92
f 247/31/91 249/33/91 250/32/91 248/30/91
f 249/33/90 251/35/90 252/34/90 250/32/90
f 251/35/89 253/5/89 254/13/89 252/34/89
f 253/5/88 255/37/88 256/36/88 254/13/88
f 255/37/87 257/39/87 258/38/87 256/36/87
f 257/39/86 259/41/86 260/40/86 258/38/86
f 259/41/85 261/11/85 262/42/85 260/40/85
f 261/11/84 263/44/84 264/43/84 262/42/84
f 263/44/83 233/46/83 234/45/83 264/43/83
f 265/19/90 267/22/90 268/21/90 266/20/90
f 267/22/89 269/17/89 270/23/89 268/21/89
f 269/17/88 271/25/88 272/24/88 270/23/88
f 271/25/87 273/27/87 274/26/87 272/24/87
f 273/27/86 275/29/86 276/28/86 274/26/86
f 275/29/85 277/6/85 278/14/85 276/28/85
f 277/6/84 279/31/84 280/30/84 278/14/84
f 279/31/83 281/33/83 282/32/83 280/30/83
f 281/33/98 283/35/98 284/34/98 282/32/98
f 283/35/97 285/5/97 286/13/97 284/34/97
f 285/5/96 287/37/96 288/36/96 286/13/96
f 287/37/95 289/39/95 290/38/95 288/36/95
f 289/39/94 291/41/94 292/40/94 290/38/94
f 291/41/93 293/11/93 294/42/93 292/40/93
f 293/11/92 295/44/92 296/43/92 294/42/92
f 295/44/91 265/46/91 266/45/91 296/43/91
f 297/19/91 298/20/91 300/21/91 299/22/91
f 299/22/92 300/21/92 302/23/92 301/17/92
f 301/17/93 302/23/93 304/24/93 303/25/93
f 303/25/94 304/24/94 306/26/94 305/27/94
f 305/27/95 306/26/95 308/28/95 307/29/95
f 307/29/96 308/28/96 310/14/96 309/6/96
f 309/6/97 310/14/97 312/30/97 311/31/97
f 311/31/98 312/30/98 314/32/98 313/33/98
f 313/33/83 314/32/83 316/34/83 315/35/83
f 315/35/84 316/34/84 318/13/84 317/5/84
f 317/5/85 318/13/85 320/36/85 319/37/85
f 319/37/86 320/36/86 322/38/86 321/39/86
f 321/39/87 322/38/87 324/40/87 323/41/87
f 323/41/88 324/40/88 326/42/88 325/11/88
f 325/11/89 326/42/89 328/43/89 327/44/89
f 327/44/90 328/43/90 298/45/90 297/46/90
