# Blender 4.0.1
# www.blender.org
g ClockTower_Cube.001
v -2.712445 27.851952 4.022936
v -4.022936 0.787519 4.022936
v -4.022936 29.879368 -4.022936
v -4.022936 0.787519 -4.022936
v 2.712445 27.851952 4.022936
v 4.022936 0.787519 4.022936
v 4.022936 29.879368 -4.022936
v 4.022936 0.787519 -4.022936
v -4.022936 29.879368 4.022936
v 4.022936 29.879368 4.022936
v -2.712445 2.814937 4.022936
v 2.712445 2.814937 4.022936
v 2.712445 2.814937 0.395796
v -2.712445 2.814937 0.395796
v -2.712445 27.851952 0.395796
v 2.712445 27.851952 0.395796
v -5.153017 -0.044605 5.153017
v -5.153017 0.907989 5.153017
v -5.153017 -0.044605 -5.153017
v -5.153017 0.907989 -5.153017
v 5.153017 -0.044605 5.153017
v 5.153017 0.907989 5.153017
v 5.153017 -0.044605 -5.153017
v 5.153017 0.907989 -5.153017
v -4.742916 29.051706 4.742916
v -4.742916 30.459602 4.742916
v -4.742916 29.051706 -4.742916
v -4.742916 30.459602 -4.742916
v 4.742916 29.051706 4.742916
v 4.742916 30.459602 4.742916
v 4.742916 29.051706 -4.742916
v 4.742916 30.459602 -4.742916
v -3.861466 0.473436 3.509811
v -3.861466 29.295528 3.509811
v -3.659725 0.473436 3.549940
v -3.659725 29.295528 3.549940
v -3.488697 0.473436 3.664217
v -3.488697 29.295528 3.664217
v -3.374419 0.473436 3.835246
v -3.374419 29.295528 3.835246
v -3.334291 0.473436 4.036987
v -3.334291 29.295528 4.036987
v -3.374419 0.473436 4.238728
v -3.374419 29.295528 4.238728
v -3.488697 0.473436 4.409756
v -3.488697 29.295528 4.409756
v -3.659725 0.473436 4.524034
v -3.659725 29.295528 4.524034
v -3.861466 0.473436 4.564163
v -3.861466 29.295528 4.564163
v -4.063208 0.473436 4.524034
v -4.063208 29.295528 4.524034
v -4.234235 0.473436 4.409756
v -4.234235 29.295528 4.409756
v -4.348513 0.473436 4.238728
v -4.348513 29.295528 4.238728
v -4.388642 0.473436 4.036987
v -4.388642 29.295528 4.036987
v -4.348513 0.473436 3.835246
v -4.348513 29.295528 3.835246
v -4.234235 0.473436 3.664217
v -4.234235 29.295528 3.664217
v -4.063208 0.473436 3.549940
v -4.063208 29.295528 3.549940
v 3.861466 0.473436 3.509811
v 3.861466 29.295528 3.509811
v 3.659725 0.473436 3.549940
v 3.659725 29.295528 3.549940
v 3.488697 0.473436 3.664217
v 3.488697 29.295528 3.664217
v 3.374419 0.473436 3.835246
v 3.374419 29.295528 3.835246
v 3.334291 0.473436 4.036987
v 3.334291 29.295528 4.036987
v 3.374419 0.473436 4.238728
v 3.374419 29.295528 4.238728
v 3.488697 0.473436 4.409756
v 3.488697 29.295528 4.409756
v 3.659725 0.473436 4.524034
v 3.659725 29.295528 4.524034
v 3.861466 0.473436 4.564163
v 3.861466 29.295528 4.564163
v 4.063208 0.473436 4.524034
v 4.063208 29.295528 4.524034
v 4.234235 0.473436 4.409756
v 4.234235 29.295528 4.409756
v 4.348513 0.473436 4.238728
v 4.348513 29.295528 4.238728
v 4.388642 0.473436 4.036987
v 4.388642 29.295528 4.036987
v 4.348513 0.473436 3.835246
v 4.348513 29.295528 3.835246
v 4.234235 0.473436 3.664217
v 4.234235 29.295528 3.664217
v 4.063208 0.473436 3.549940
v 4.063208 29.295528 3.549940
v -3.861466 0.473436 -3.509811
v -3.861466 29.295528 -3.509811
v -3.659725 0.473436 -3.549940
v -3.659725 29.295528 -3.549940
v -3.488697 0.473436 -3.664217
v -3.488697 29.295528 -3.664217
v -3.374419 0.473436 -3.835246
v -3.374419 29.295528 -3.835246
v -3.334291 0.473436 -4.036987
v -3.334291 29.295528 -4.036987
v -3.374419 0.473436 -4.238728
v -3.374419 29.295528 -4.238728
v -3.488697 0.473436 -4.409756
v -3.488697 29.295528 -4.409756
v -3.659725 0.473436 -4.524034
v -3.659725 29.295528 -4.524034
v -3.861466 0.473436 -4.564163
v -3.861466 29.295528 -4.564163
v -4.063208 0.473436 -4.524034
v -4.063208 29.295528 -4.524034
v -4.234235 0.473436 -4.409756
v -4.234235 29.295528 -4.409756
v -4.348513 0.473436 -4.238728
v -4.348513 29.295528 -4.238728
v -4.388642 0.473436 -4.036987
v -4.388642 29.295528 -4.036987
v -4.348513 0.473436 -3.835246
v -4.348513 29.295528 -3.835246
v -4.234235 0.473436 -3.664217
v -4.234235 29.295528 -3.664217
v -4.063208 0.473436 -3.549940
v -4.063208 29.295528 -3.549940
v 3.861466 0.473436 -3.509811
v 3.861466 29.295528 -3.509811
v 3.659725 0.473436 -3.549940
v 3.659725 29.295528 -3.549940
v 3.488697 0.473436 -3.664217
v 3.488697 29.295528 -3.664217
v 3.374419 0.473436 -3.835246
v 3.374419 29.295528 -3.835246
v 3.334291 0.473436 -4.036987
v 3.334291 29.295528 -4.036987
v 3.374419 0.473436 -4.238728
v 3.374419 29.295528 -4.238728
v 3.488697 0.473436 -4.409756
v 3.488697 29.295528 -4.409756
v 3.659725 0.473436 -4.524034
v 3.659725 29.295528 -4.524034
v 3.861466 0.473436 -4.564163
v 3.861466 29.295528 -4.564163
v 4.063208 0.473436 -4.524034
v 4.063208 29.295528 -4.524034
v 4.234235 0.473436 -4.409756
v 4.234235 29.295528 -4.409756
v 4.348513 0.473436 -4.238728
v 4.348513 29.295528 -4.238728
v 4.388642 0.473436 -4.036987
v 4.388642 29.295528 -4.036987
v 4.348513 0.473436 -3.835246
v 4.348513 29.295528 -3.835246
v 4.234235 0.473436 -3.664217
v 4.234235 29.295528 -3.664217
v 4.063208 0.473436 -3.549940
v 4.063208 29.295528 -3.549940
v -4.022935 38.356121 4.022935
v -4.022935 30.328667 4.022935
v -4.022935 38.356121 -4.022935
v -4.022935 30.328667 -4.022935
v 4.022935 38.356121 4.022935
v 4.022935 30.328667 4.022935
v 4.022935 38.356121 -4.022935
v 4.022935 30.328667 -4.022935
v -4.742916 38.098541 4.742916
v -4.742916 39.506439 4.742916
v -4.742916 38.098541 -4.742916
v -4.742916 39.506439 -4.742916
v 4.742916 38.098541 4.742916
v 4.742916 39.506439 4.742916
v 4.742916 38.098541 -4.742916
v 4.742916 39.506439 -4.742916
v -4.054014 39.393291 4.054014
v -4.054014 41.638683 4.054014
v -4.054014 39.393291 -4.054014
v -4.054014 41.638683 -4.054014
v 4.054014 39.393291 4.054014
v 4.054014 41.638683 4.054014
v 4.054014 39.393291 -4.054014
v 4.054014 41.638683 -4.054014
v -2.843790 41.540836 2.843790
v -2.843790 43.373215 2.843790
v -2.843790 41.540836 -2.843790
v -2.843790 43.373215 -2.843790
v 2.843790 41.540836 2.843790
v 2.843790 43.373215 2.843790
v 2.843790 41.540836 -2.843790
v 2.843790 43.373215 -2.843790
v -0.590595 43.228016 0.590595
v -0.347394 49.585636 0.347394
v -0.590595 43.228016 -0.590595
v -0.347394 49.585636 -0.347394
v 0.590595 43.228016 0.590595
v 0.347394 49.585636 0.347394
v 0.590595 43.228016 -0.590595
v 0.347394 49.585636 -0.347394
v -3.861466 29.966961 3.509811
v -3.861466 38.547279 3.509811
v -3.659725 29.966961 3.549940
v -3.659725 38.547279 3.549940
v -3.488697 29.966961 3.664217
v -3.488697 38.547279 3.664217
v -3.374419 29.966961 3.835246
v -3.374419 38.547279 3.835246
v -3.334291 29.966961 4.036987
v -3.334291 38.547279 4.036987
v -3.374419 29.966961 4.238728
v -3.374419 38.547279 4.238728
v -3.488697 29.966961 4.409756
v -3.488697 38.547279 4.409756
v -3.659725 29.966961 4.524034
v -3.659725 38.547279 4.524034
v -3.861466 29.966961 4.564163
v -3.861466 38.547279 4.564163
v -4.063208 29.966961 4.524034
v -4.063208 38.547279 4.524034
v -4.234235 29.966961 4.409756
v -4.234235 38.547279 4.409756
v -4.348513 29.966961 4.238728
v -4.348513 38.547279 4.238728
v -4.388642 29.966961 4.036987
v -4.388642 38.547279 4.036987
v -4.348513 29.966961 3.835246
v -4.348513 38.547279 3.835246
v -4.234235 29.966961 3.664217
v -4.234235 38.547279 3.664217
v -4.063208 29.966961 3.549940
v -4.063208 38.547279 3.549940
v 3.861466 29.966961 3.509811
v 3.861466 38.547279 3.509811
v 3.659725 29.966961 3.549940
v 3.659725 38.547279 3.549940
v 3.488697 29.966961 3.664217
v 3.488697 38.547279 3.664217
v 3.374419 29.966961 3.835246
v 3.374419 38.547279 3.835246
v 3.334291 29.966961 4.036987
v 3.334291 38.547279 4.036987
v 3.374419 29.966961 4.238728
v 3.374419 38.547279 4.238728
v 3.488697 29.966961 4.409756
v 3.488697 38.547279 4.409756
v 3.659725 29.966961 4.524034
v 3.659725 38.547279 4.524034
v 3.861466 29.966961 4.564163
v 3.861466 38.547279 4.564163
v 4.063208 29.966961 4.524034
v 4.063208 38.547279 4.524034
v 4.234235 29.966961 4.409756
v 4.234235 38.547279 4.409756
v 4.348513 29.966961 4.238728
v 4.348513 38.547279 4.238728
v 4.388642 29.966961 4.036987
v 4.388642 38.547279 4.036987
v 4.348513 29.966961 3.835246
v 4.348513 38.547279 3.835246
v 4.234235 29.966961 3.664217
v 4.234235 38.547279 3.664217
v 4.063208 29.966961 3.549940
v 4.063208 38.547279 3.549940
v -3.861466 29.966961 -3.509811
v -3.861466 38.547279 -3.509811
v -3.659725 29.966961 -3.549940
v -3.659725 38.547279 -3.549940
v -3.488697 29.966961 -3.664217
v -3.488697 38.547279 -3.664217
v -3.374419 29.966961 -3.835246
v -3.374419 38.547279 -3.835246
v -3.334291 29.966961 -4.036987
v -3.334291 38.547279 -4.036987
v -3.374419 29.966961 -4.238728
v -3.374419 38.547279 -4.238728
v -3.488697 29.966961 -4.409756
v -3.488697 38.547279 -4.409756
v -3.659725 29.966961 -4.524034
v -3.659725 38.547279 -4.524034
v -3.861466 29.966961 -4.564163
v -3.861466 38.547279 -4.564163
v -4.063208 29.966961 -4.524034
v -4.063208 38.547279 -4.524034
v -4.234235 29.966961 -4.409756
v -4.234235 38.547279 -4.409756
v -4.348513 29.966961 -4.238728
v -4.348513 38.547279 -4.238728
v -4.388642 29.966961 -4.036987
v -4.388642 38.547279 -4.036987
v -4.348513 29.966961 -3.835246
v -4.348513 38.547279 -3.835246
v -4.234235 29.966961 -3.664217
v -4.234235 38.547279 -3.664217
v -4.063208 29.966961 -3.549940
v -4.063208 38.547279 -3.549940
v 3.861466 29.966961 -3.509811
v 3.861466 38.547279 -3.509811
v 3.659725 29.966961 -3.549940
v 3.659725 38.547279 -3.549940
v 3.488697 29.966961 -3.664217
v 3.488697 38.547279 -3.664217
v 3.374419 29.966961 -3.835246
v 3.374419 38.547279 -3.835246
v 3.334291 29.966961 -4.036987
v 3.334291 38.547279 -4.036987
v 3.374419 29.966961 -4.238728
v 3.374419 38.547279 -4.238728
v 3.488697 29.966961 -4.409756
v 3.488697 38.547279 -4.409756
v 3.659725 29.966961 -4.524034
v 3.659725 38.547279 -4.524034
v 3.861466 29.966961 -4.564163
v 3.861466 38.547279 -4.564163
v 4.063208 29.966961 -4.524034
v 4.063208 38.547279 -4.524034
v 4.234235 29.966961 -4.409756
v 4.234235 38.547279 -4.409756
v 4.348513 29.966961 -4.238728
v 4.348513 38.547279 -4.238728
v 4.388642 29.966961 -4.036987
v 4.388642 38.547279 -4.036987
v 4.348513 29.966961 -3.835246
v 4.348513 38.547279 -3.835246
v 4.234235 29.966961 -3.664217
v 4.234235 38.547279 -3.664217
v 4.063208 29.966961 -3.549940
v 4.063208 38.547279 -3.549940
vn -1.0000 -0.0000 -0.0000
vn -0.0000 -0.0000 -1.0000
vn 1.0000 -0.0000 -0.0000
vn -0.0000 -1.0000 -0.0000
vn -0.0000 1.0000 -0.0000
vn -0.0000 -0.0000 1.0000
vn 0.1951 -0.0000 -0.9808
vn 0.5556 -0.0000 -0.8315
vn 0.8315 -0.0000 -0.5556
vn 0.9808 -0.0000 -0.1951
vn 0.9808 -0.0000 0.1951
vn 0.8315 -0.0000 0.5556
vn 0.5556 -0.0000 0.8315
vn 0.1951 -0.0000 0.9808
vn -0.1951 -0.0000 0.9808
vn -0.5556 -0.0000 0.8315
vn -0.8315 -0.0000 0.5556
vn -0.9808 -0.0000 0.1951
vn -0.9808 -0.0000 -0.1951
vn -0.8315 -0.0000 -0.5556
vn -0.5556 -0.0000 -0.8315
vn -0.1951 -0.0000 -0.9808
vn -0.9993 0.0382 -0.0000
vn -0.0000 0.0382 -0.9993
vn 0.9993 0.0382 -0.0000
vn -0.0000 0.0382 0.9993
vt 0.375000 0.000000
vt 0.375000 0.250000
vt 0.625000 0.250000
vt 0.625000 0.000000
vt 0.375000 0.500000
vt 0.625000 0.500000
vt 0.375000 0.750000
vt 0.625000 0.750000
vt 0.388627 0.986373
vt 0.388627 0.763627
vt 0.125000 0.500000
vt 0.125000 0.750000
vt 0.375000 1.000000
vt 0.625000 1.000000
vt 0.611373 0.986373
vt 0.611373 0.763627
vt 0.875000 0.500000
vt 0.875000 0.750000
vt 1.000000 0.500000
vt 1.000000 1.000000
vt 0.937500 1.000000
vt 0.937500 0.500000
vt 0.875000 1.000000
vt 0.812500 1.000000
vt 0.812500 0.500000
vt 0.750000 1.000000
vt 0.750000 0.500000
vt 0.687500 1.000000
vt 0.687500 0.500000
vt 0.562500 1.000000
vt 0.562500 0.500000
vt 0.500000 1.000000
vt 0.500000 0.500000
vt 0.437500 1.000000
vt 0.437500 0.500000
vt 0.312500 1.000000
vt 0.312500 0.500000
vt 0.250000 1.000000
vt 0.250000 0.500000
vt 0.187500 1.000000
vt 0.187500 0.500000
vt 0.125000 1.000000
vt 0.062500 1.000000
vt 0.062500 0.500000
vt 0.000000 1.000000
vt 0.000000 0.500000
s 0
g off
f 9/1/1 3/2/1 4/3/1 2/4/1
f 3/2/2 7/5/2 8/6/2 4/3/2
f 7/5/3 10/7/3 6/8/3 8/6/3
f 1/9/4 15/9/4 16/10/4 5/10/4
f 3/11/5 9/12/5 10/7/5 7/5/5
f 1/9/6 9/13/6 2/14/6 11/15/6
f 12/16/6 6/8/6 10/7/6 5/10/6
f 5/10/6 10/7/6 9/13/6 1/9/6
f 11/15/6 2/14/6 6/8/6 12/16/6
f 16/10/6 15/9/6 14/15/6 13/16/6
f 11/15/3 14/15/3 15/9/3 1/9/3
f 5/10/1 16/10/1 13/16/1 12/16/1
f 12/16/5 13/16/5 14/15/5 11/15/5
f 17/1/1 18/4/1 20/3/1 19/2/1
f 19/2/2 20/3/2 24/6/2 23/5/2
f 23/5/3 24/6/3 22/8/3 21/7/3
f 21/7/6 22/8/6 18/14/6 17/13/6
f 19/11/4 23/5/4 21/7/4 17/12/4
f 24/6/5 20/17/5 18/18/5 22/8/5
f 25/1/1 26/4/1 28/3/1 27/2/1
f 27/2/2 28/3/2 32/6/2 31/5/2
f 31/5/3 32/6/3 30/8/3 29/7/3
f 29/7/6 30/8/6 26/14/6 25/13/6
f 27/11/4 31/5/4 29/7/4 25/12/4
f 32/6/5 28/17/5 26/18/5 30/8/5
f 33/19/7 34/20/7 36/21/7 35/22/7
f 35/22/8 36/21/8 38/23/8 37/17/8
f 37/17/9 38/23/9 40/24/9 39/25/9
f 39/25/10 40/24/10 42/26/10 41/27/10
f 41/27/11 42/26/11 44/28/11 43/29/11
f 43/29/12 44/28/12 46/14/12 45/6/12
f 45/6/13 46/14/13 48/30/13 47/31/13
f 47/31/14 48/30/14 50/32/14 49/33/14
f 49/33/15 50/32/15 52/34/15 51/35/15
f 51/35/16 52/34/16 54/13/16 53/5/16
f 53/5/17 54/13/17 56/36/17 55/37/17
f 55/37/18 56/36/18 58/38/18 57/39/18
f 57/39/19 58/38/19 60/40/19 59/41/19
f 59/41/20 60/40/20 62/42/20 61/11/20
f 61/11/21 62/42/21 64/43/21 63/44/21
f 63/44/22 64/43/22 34/45/22 33/46/22
f 65/19/22 67/22/22 68/21/22 66/20/22
f 67/22/21 69/17/21 70/23/21 68/21/21
f 69/17/20 71/25/20 72/24/20 70/23/20
f 71/25/19 73/27/19 74/26/19 72/24/19
f 73/27/18 75/29/18 76/28/18 74/26/18
f 75/29/17 77/6/17 78/14/17 76/28/17
f 77/6/16 79/31/16 80/30/16 78/14/16
f 79/31/15 81/33/15 82/32/15 80/30/15
f 81/33/14 83/35/14 84/34/14 82/32/14
f 83/35/13 85/5/13 86/13/13 84/34/13
f 85/5/12 87/37/12 88/36/12 86/13/12
f 87/37/11 89/39/11 90/38/11 88/36/11
f 89/39/10 91/41/10 92/40/10 90/38/10
f 91/41/9 93/11/9 94/42/9 92/40/9
f 93/11/8 95/44/8 96/43/8 94/42/8
f 95/44/7 65/46/7 66/45/7 96/43/7
f 97/19/14 99/22/14 100/21/14 98/20/14
f 99/22/13 101/17/13 102/23/13 100/21/13
f 101/17/12 103/25/12 104/24/12 102/23/12
f 103/25/11 105/27/11 106/26/11 104/24/11
f 105/27/10 107/29/10 108/28/10 106/26/10
f 107/29/9 109/6/9 110/14/9 108/28/9
f 109/6/8 111/31/8 112/30/8 110/14/8
f 111/31/7 113/33/7 114/32/7 112/30/7
f 113/33/22 115/35/22 116/34/22 114/32/22
f 115/35/21 117/5/21 118/13/21 116/34/21
f 117/5/20 119/37/20 120/36/20 118/13/20
f 119/37/19 121/39/19 122/38/19 120/36/19
f 121/39/18 123/41/18 124/40/18 122/38/18
f 123/41/17 125/11/17 126/42/17 124/40/17
f 125/11/16 127/44/16 128/43/16 126/42/16
f 127/44/15 97/46/15 98/45/15 128/43/15
f 129/19/15 130/20/15 132/21/15 131/22/15
f 131/22/16 132/21/16 134/23/16 133/17/16
f 133/17/17 134/23/17 136/24/17 135/25/17
f 135/25/18 136/24/18 138/26/18 137/27/18
f 137/27/19 138/26/19 140/28/19 139/29/19
f 139/29/20 140/28/20 142/14/20 141/6/20
f 141/6/21 142/14/21 144/30/21 143/31/21
f 143/31/22 144/30/22 146/32/22 145/33/22
f 145/33/7 146/32/7 148/34/7 147/35/7
f 147/35/8 148/34/8 150/13/8 149/5/8
f 149/5/9 150/13/9 152/36/9 151/37/9
f 151/37/10 152/36/10 154/38/10 153/39/10
f 153/39/11 154/38/11 156/40/11 155/41/11
f 155/41/12 156/40/12 158/42/12 157/11/12
f 157/11/13 158/42/13 160/43/13 159/44/13
f 159/44/14 160/43/14 130/45/14 129/46/14
f 161/1/1 163/2/1 164/3/1 162/4/1
f 163/2/2 167/5/2 168/6/2 164/3/2
f 167/5/3 165/7/3 166/8/3 168/6/3
f 165/7/6 161/13/6 162/14/6 166/8/6
f 163/11/5 161/12/5 165/7/5 167/5/5
f 169/1/1 170/4/1 172/3/1 171/2/1
f 171/2/2 172/3/2 176/6/2 175/5/2
f 175/5/3 176/6/3 174/8/3 173/7/3
f 173/7/6 174/8/6 170/14/6 169/13/6
f 171/11/4 175/5/4 173/7/4 169/12/4
f 176/6/5 172/17/5 170/18/5 174/8/5
f 177/1/1 178/4/1 180/3/1 179/2/1
f 179/2/2 180/3/2 184/6/2 183/5/2
f 183/5/3 184/6/3 182/8/3 181/7/3
f 181/7/6 182/8/6 178/14/6 177/13/6
f 184/6/5 180/17/5 178/18/5 182/8/5
f 185/1/1 186/4/1 188/3/1 187/2/1
f 187/2/2 188/3/2 192/6/2 191/5/2
f 191/5/3 192/6/3 190/8/3 189/7/3
f 189/7/6 190/8/6 186/14/6 185/13/6
f 192/6/5 188/17/5 186/18/5 190/8/5
f 193/1/23 194/4/23 196/3/23 195/2/23
f 195/2/24 196/3/24 200/6/24 199/5/24
f 199/5/25 200/6/25 198/8/25 197/7/25
f 197/7/26 198/8/26 194/14/26 193/13/26
f 200/6/5 196/17/5 194/18/5 198/8/5
f 201/19/7 202/20/7 204/21/7 203/22/7
f 203/22/8 204/21/8 206/23/8 205/17/8
f 205/17/9 206/23/9 208/24/9 207/25/9
f 207/25/10 208/24/10 210/26/10 209/27/10
f 209/27/11 210/26/11 212/28/11 211/29/11
f 211/29/12 212/28/12 214/14/12 213/6/12
f 213/6/13 214/14/13 216/30/13 215/31/13
f 215/31/14 216/30/14 218/32/14 217/33/14
f 217/33/15 218/32/15 220/34/15 219/35/15
f 219/35/16 220/34/16 222/13/16 221/5/16
f 221/5/17 222/13/17 224/36/17 223/37/17
f 223/37/18 224/36/18 226/38/18 225/39/18
f 225/39/19 226/38/19 228/40/19 227/41/19
f 227/41/20 228/40/20 230/42/20 229/11/20
f 229/11/21 230/42/21 232/43/21 231/44/21
f 231/44/22 232/43/22 202/45/22 201/46/22
f 233/19/22 235/22/22 236/21/22 234/20/22
f 235/22/21 237/17/21 238/23/21 236/21/21
f 237/17/20 239/25/20 240/24/20 238/23/20
f 239/25/19 241/27/19 242/26/19 240/24/19
f 241/27/18 243/29/18 244/28/18 242/26/18
f 243/29/17 245/6/17 246/14/17 244/28/17
f 245/6/16 247/31/16 248/30/16 246/14/16
f 247/31/15 249/33/15 250/32/15 248/30/15
f 249/33/14 251/35/14 252/34/14 250/32/14
f 251/35/13 253/5/13 254/13/13 252/34/13
f 253/5/12 255/37/12 256/36/12 254/13/12
f 255/37/11 257/39/11 258/38/11 256/36/11
f 257/39/10 259/41/10 260/40/10 258/38/10
f 259/41/9 261/11/9 262/42/9 260/40/9
f 261/11/8 263/44/8 264/43/8 262/42/8
f 263/44/7 233/46/7 234/45/7 264/43/7
f 265/19/14 267/22/14 268/21/14 266/20/14
f 267/22/13 269/17/13 270/23/13 268/21/13
f 269/17/12 271/25/12 272/24/12 270/23/12
f 271/25/11 273/27/11 274/26/11 272/24/11
f 273/27/10 275/29/10 276/28/10 274/26/10
f 275/29/9 277/6/9 278/14/9 276/28/9
f 277/6/8 279/31/8 280/30/8 278/14/8
f 279/31/7 281/33/7 282/32/7 280/30/7
f 281/33/22 283/35/22 284/34/22 282/32/22
f 283/35/21 285/5/21 286/13/21 284/34/21
f 285/5/20 287/37/20 288/36/20 286/13/20
f 287/37/19 289/39/19 290/38/19 288/36/19
f 289/39/18 291/41/18 292/40/18 290/38/18
f 291/41/17 293/11/17 294/42/17 292/40/17
f 293/11/16 295/44/16 296/43/16 294/42/16
f 295/44/15 265/46/15 266/45/15 296/43/15
f 297/19/15 298/20/15 300/21/15 299/22/15
f 299/22/16 300/21/16 302/23/16 301/17/16
f 301/17/17 302/23/17 304/24/17 303/25/17
f 303/25/18 304/24/18 306/26/18 305/27/18
f 305/27/19 306/26/19 308/28/19 307/29/19
f 307/29/20 308/28/20 310/14/20 309/6/20
f 309/6/21 310/14/21 312/30/21 311/31/21
f 311/31/22 312/30/22 314/32/22 313/33/22
f 313/33/7 314/32/7 316/34/7 315/35/7
f 315/35/8 316/34/8 318/13/8 317/5/8
f 317/5/9 318/13/9 320/36/9 319/37/9
f 319/37/10 320/36/10 322/38/10 321/39/10
f 321/39/11 322/38/11 324/40/11 323/41/11
f 323/41/12 324/40/12 326/42/12 325/11/12
f 325/11/13 326/42/13 328/43/13 327/44/13
f 327/44/14 328/43/14 298/45/14 297/46/14
