# Blender 4.0.1
# www.blender.org
g Scaffolding_Cube.014
v -7.335622 16.759964 5.706199
v -7.335622 17.571991 5.706199
v -7.335622 16.759964 4.509137
v -7.335622 17.571991 4.509137
v 7.335622 16.759964 5.706199
v 7.335622 17.571991 5.706199
v 7.335622 16.759964 4.509137
v 7.335622 17.571991 4.509137
v -7.335621 16.759964 -4.456480
v -7.335621 17.571993 -4.456480
v -7.335621 16.759964 -5.653542
v -7.335621 17.571993 -5.653542
v 7.335621 16.759964 -4.456480
v 7.335621 17.571993 -4.456480
v 7.335621 16.759964 -5.653542
v 7.335621 17.571993 -5.653542
v -5.495490 16.823893 -4.806497
v -5.495490 17.508066 -4.806497
v -4.965338 16.823893 -4.806497
v -4.965338 17.508066 -4.806497
v -5.495491 16.823893 4.806498
v -5.495491 17.508066 4.806498
v -4.965339 16.823893 4.806498
v -4.965339 17.508066 4.806498
v -5.381476 15.800160 -4.954404
v -5.381476 16.338257 -4.675543
v -5.079352 15.800160 -4.954404
v -5.079352 16.338257 -4.675543
v -5.381476 10.741262 4.807374
v -5.381476 11.279358 5.086234
v -5.079353 10.741262 4.807374
v -5.079353 11.279358 5.086234
v -5.381476 11.031234 -4.878840
v -5.381476 11.577562 -5.137653
v -5.079352 11.031234 -4.878840
v -5.079352 11.577562 -5.137653
v -5.381476 15.745733 5.072993
v -5.381476 16.292061 4.814180
v -5.079353 15.745733 5.072993
v -5.079353 16.292061 4.814180
v -5.381476 10.589375 -4.954404
v -5.381476 11.127470 -4.675543
v -5.079352 10.589375 -4.954404
v -5.079352 11.127470 -4.675543
v -5.381476 5.530475 4.807374
v -5.381476 6.068572 5.086234
v -5.079353 5.530475 4.807374
v -5.079353 6.068572 5.086234
v -5.381476 5.820448 -4.878840
v -5.381476 6.366776 -5.137653
v -5.079352 5.820448 -4.878840
v -5.079352 6.366776 -5.137653
v -5.381476 10.534948 5.072993
v -5.381476 11.081276 4.814180
v -5.079353 10.534948 5.072993
v -5.079353 11.081276 4.814180
v -5.381476 5.287171 -4.954404
v -5.381476 5.825268 -4.675543
v -5.079352 5.287171 -4.954404
v -5.079352 5.825268 -4.675543
v -5.381476 0.228273 4.807374
v -5.381476 0.766369 5.086234
v -5.079353 0.228273 4.807374
v -5.079353 0.766369 5.086234
v -5.381476 0.518246 -4.878840
v -5.381476 1.064575 -5.137653
v -5.079352 0.518246 -4.878840
v -5.079352 1.064575 -5.137653
v -5.381476 5.232745 5.072993
v -5.381476 5.779074 4.814180
v -5.079353 5.232745 5.072993
v -5.079353 5.779074 4.814180
v -5.460556 10.862095 -5.184973
v -5.460556 11.456104 -5.184973
v -5.000272 10.862095 -5.184973
v -5.000272 11.456104 -5.184973
v -5.460557 10.862095 5.156477
v -5.460557 11.456104 5.156477
v -5.000273 10.862095 5.156477
v -5.000273 11.456104 5.156477
v -5.460556 5.501204 -5.184973
v -5.460556 6.095213 -5.184973
v -5.000272 5.501204 -5.184973
v -5.000272 6.095213 -5.184973
v -5.460557 5.501204 5.156477
v -5.460557 6.095213 5.156477
v -5.000273 5.501204 5.156477
v -5.000273 6.095213 5.156477
v -5.460556 0.157949 -5.184973
v -5.460556 0.751957 -5.184973
v -5.000272 0.157949 -5.184973
v -5.000272 0.751957 -5.184973
v -5.460557 0.157949 5.156477
v -5.460557 0.751957 5.156477
v -5.000273 0.157949 5.156477
v -5.000273 0.751957 5.156477
v 5.495490 16.823893 -4.806497
v 5.495490 17.508066 -4.806497
v 4.965338 16.823893 -4.806497
v 4.965338 17.508066 -4.806497
v 5.495491 16.823893 4.806498
v 5.495491 17.508066 4.806498
v 4.965339 16.823893 4.806498
v 4.965339 17.508066 4.806498
v 5.381476 15.800160 -4.954404
v 5.381476 16.338257 -4.675543
v 5.079352 15.800160 -4.954404
v 5.079352 16.338257 -4.675543
v 5.381476 10.741262 4.807374
v 5.381476 11.279358 5.086234
v 5.079353 10.741262 4.807374
v 5.079353 11.279358 5.086234
v 5.381476 11.031234 -4.878840
v 5.381476 11.577562 -5.137653
v 5.079352 11.031234 -4.878840
v 5.079352 11.577562 -5.137653
v 5.381476 15.745733 5.072993
v 5.381476 16.292061 4.814180
v 5.079353 15.745733 5.072993
v 5.079353 16.292061 4.814180
v 5.381476 10.589375 -4.954404
v 5.381476 11.127470 -4.675543
v 5.079352 10.589375 -4.954404
v 5.079352 11.127470 -4.675543
v 5.381476 5.530475 4.807374
v 5.381476 6.068572 5.086234
v 5.079353 5.530475 4.807374
v 5.079353 6.068572 5.086234
v 5.381476 5.820448 -4.878840
v 5.381476 6.366776 -5.137653
v 5.079352 5.820448 -4.878840
v 5.079352 6.366776 -5.137653
v 5.381476 10.534948 5.072993
v 5.381476 11.081276 4.814180
v 5.079353 10.534948 5.072993
v 5.079353 11.081276 4.814180
v 5.381476 5.287171 -4.954404
v 5.381476 5.825268 -4.675543
v 5.079352 5.287171 -4.954404
v 5.079352 5.825268 -4.675543
v 5.381476 0.228273 4.807374
v 5.381476 0.766369 5.086234
v 5.079353 0.228273 4.807374
v 5.079353 0.766369 5.086234
v 5.381476 0.518246 -4.878840
v 5.381476 1.064575 -5.137653
v 5.079352 0.518246 -4.878840
v 5.079352 1.064575 -5.137653
v 5.381476 5.232745 5.072993
v 5.381476 5.779074 4.814180
v 5.079353 5.232745 5.072993
v 5.079353 5.779074 4.814180
v 5.460556 10.862095 -5.184973
v 5.460556 11.456104 -5.184973
v 5.000272 10.862095 -5.184973
v 5.000272 11.456104 -5.184973
v 5.460557 10.862095 5.156477
v 5.460557 11.456104 5.156477
v 5.000273 10.862095 5.156477
v 5.000273 11.456104 5.156477
v 5.460556 5.501204 -5.184973
v 5.460556 6.095213 -5.184973
v 5.000272 5.501204 -5.184973
v 5.000272 6.095213 -5.184973
v 5.460557 5.501204 5.156477
v 5.460557 6.095213 5.156477
v 5.000273 5.501204 5.156477
v 5.000273 6.095213 5.156477
v 5.460556 0.157949 -5.184973
v 5.460556 0.751957 -5.184973
v 5.000272 0.157949 -5.184973
v 5.000272 0.751957 -5.184973
v 5.460557 0.157949 5.156477
v 5.460557 0.751957 5.156477
v 5.000273 0.157949 5.156477
v 5.000273 0.751957 5.156477
v 4.806498 16.823893 -5.495488
v 4.806498 17.508066 -5.495488
v 4.806497 16.823893 -4.965338
v 4.806497 17.508066 -4.965338
v -4.806497 16.823893 -5.495490
v -4.806497 17.508066 -5.495490
v -4.806497 16.823893 -4.965338
v -4.806497 17.508066 -4.965338
v 4.954405 15.800160 -5.381475
v 4.675545 16.338257 -5.381475
v 4.954405 15.800160 -5.079352
v 4.675545 16.338257 -5.079352
v -4.807372 10.741262 -5.381476
v -5.086233 11.279358 -5.381476
v -4.807372 10.741262 -5.079352
v -5.086233 11.279358 -5.079352
v 4.878842 11.031234 -5.381475
v 5.137654 11.577562 -5.381475
v 4.878842 11.031234 -5.079352
v 5.137654 11.577562 -5.079352
v -5.072991 15.745733 -5.381476
v -4.814179 16.292061 -5.381476
v -5.072991 15.745733 -5.079352
v -4.814179 16.292061 -5.079352
v 4.954405 10.589375 -5.381475
v 4.675545 11.127470 -5.381475
v 4.954405 10.589375 -5.079352
v 4.675545 11.127470 -5.079352
v -4.807372 5.530475 -5.381476
v -5.086233 6.068572 -5.381476
v -4.807372 5.530475 -5.079352
v -5.086233 6.068572 -5.079352
v 4.878842 5.820448 -5.381475
v 5.137654 6.366776 -5.381475
v 4.878842 5.820448 -5.079352
v 5.137654 6.366776 -5.079352
v -5.072991 10.534948 -5.381476
v -4.814179 11.081276 -5.381476
v -5.072991 10.534948 -5.079352
v -4.814179 11.081276 -5.079352
v 4.954405 5.287171 -5.381475
v 4.675545 5.825268 -5.381475
v 4.954405 5.287171 -5.079352
v 4.675545 5.825268 -5.079352
v -4.807372 0.228273 -5.381476
v -5.086233 0.766369 -5.381476
v -4.807372 0.228273 -5.079352
v -5.086233 0.766369 -5.079352
v 4.878842 0.518246 -5.381475
v 5.137654 1.064575 -5.381475
v 4.878842 0.518246 -5.079352
v 5.137654 1.064575 -5.079352
v -5.072991 5.232745 -5.381476
v -4.814179 5.779074 -5.381476
v -5.072991 5.232745 -5.079352
v -4.814179 5.779074 -5.079352
v 5.184974 10.862095 -5.460555
v 5.184974 11.456104 -5.460555
v 5.184974 10.862095 -5.000271
v 5.184974 11.456104 -5.000271
v -5.156476 10.862095 -5.460555
v -5.156476 11.456104 -5.460555
v -5.156476 10.862095 -5.000272
v -5.156476 11.456104 -5.000272
v 5.184974 5.501204 -5.460555
v 5.184974 6.095213 -5.460555
v 5.184974 5.501204 -5.000271
v 5.184974 6.095213 -5.000271
v -5.156476 5.501204 -5.460555
v -5.156476 6.095213 -5.460555
v -5.156476 5.501204 -5.000272
v -5.156476 6.095213 -5.000272
v 5.184974 0.157949 -5.460555
v 5.184974 0.751957 -5.460555
v 5.184974 0.157949 -5.000271
v 5.184974 0.751957 -5.000271
v -5.156476 0.157949 -5.460555
v -5.156476 0.751957 -5.460555
v -5.156476 0.157949 -5.000272
v -5.156476 0.751957 -5.000272
v 4.806497 16.823893 5.495491
v 4.806497 17.508066 5.495491
v 4.806497 16.823893 4.965339
v 4.806497 17.508066 4.965339
v -4.806498 16.823893 5.495491
v -4.806498 17.508066 5.495491
v -4.806497 16.823893 4.965339
v -4.806497 17.508066 4.965339
v 4.954404 15.800160 5.381476
v 4.675544 16.338257 5.381476
v 4.954404 15.800160 5.079353
v 4.675544 16.338257 5.079353
v -4.807373 10.741262 5.381477
v -5.086234 11.279358 5.381477
v -4.807373 10.741262 5.079354
v -5.086234 11.279358 5.079354
v 4.878841 11.031234 5.381476
v 5.137653 11.577562 5.381476
v 4.878841 11.031234 5.079353
v 5.137653 11.577562 5.079353
v -5.072992 15.745733 5.381477
v -4.814180 16.292061 5.381477
v -5.072992 15.745733 5.079354
v -4.814180 16.292061 5.079354
v 4.954404 10.589375 5.381476
v 4.675544 11.127470 5.381476
v 4.954404 10.589375 5.079353
v 4.675544 11.127470 5.079353
v -4.807373 5.530475 5.381477
v -5.086234 6.068572 5.381477
v -4.807373 5.530475 5.079354
v -5.086234 6.068572 5.079354
v 4.878841 5.820448 5.381476
v 5.137653 6.366776 5.381476
v 4.878841 5.820448 5.079353
v 5.137653 6.366776 5.079353
v -5.072992 10.534948 5.381477
v -4.814180 11.081276 5.381477
v -5.072992 10.534948 5.079354
v -4.814180 11.081276 5.079354
v 4.954404 5.287171 5.381476
v 4.675544 5.825268 5.381476
v 4.954404 5.287171 5.079353
v 4.675544 5.825268 5.079353
v -4.807373 0.228273 5.381477
v -5.086234 0.766369 5.381477
v -4.807373 0.228273 5.079354
v -5.086234 0.766369 5.079354
v 4.878841 0.518246 5.381476
v 5.137653 1.064575 5.381476
v 4.878841 0.518246 5.079353
v 5.137653 1.064575 5.079353
v -5.072992 5.232745 5.381477
v -4.814180 5.779074 5.381477
v -5.072992 5.232745 5.079354
v -4.814180 5.779074 5.079354
v 5.184974 10.862095 5.460557
v 5.184974 11.456104 5.460557
v 5.184974 10.862095 5.000273
v 5.184974 11.456104 5.000273
v -5.156476 10.862095 5.460557
v -5.156476 11.456104 5.460557
v -5.156476 10.862095 5.000274
v -5.156476 11.456104 5.000274
v 5.184974 5.501204 5.460557
v 5.184974 6.095213 5.460557
v 5.184974 5.501204 5.000273
v 5.184974 6.095213 5.000273
v -5.156476 5.501204 5.460557
v -5.156476 6.095213 5.460557
v -5.156476 5.501204 5.000274
v -5.156476 6.095213 5.000274
v 5.184974 0.157949 5.460557
v 5.184974 0.751957 5.460557
v 5.184974 0.157949 5.000273
v 5.184974 0.751957 5.000273
v -5.156476 0.157949 5.460557
v -5.156476 0.751957 5.460557
v -5.156476 0.157949 5.000274
v -5.156476 0.751957 5.000274
v -5.513683 17.085497 -4.596340
v -4.701654 17.085497 -4.596340
v -5.513683 17.085497 -5.408368
v -4.701654 17.085497 -5.408368
v -5.513681 0.008148 -4.596340
v -4.701653 0.008148 -4.596340
v -5.513681 0.008148 -5.408368
v -4.701653 0.008148 -5.408368
v 5.513683 17.085497 -4.596340
v 4.701654 17.085497 -4.596340
v 5.513683 17.085497 -5.408368
v 4.701654 17.085497 -5.408368
v 5.513681 0.008148 -4.596340
v 4.701653 0.008148 -4.596340
v 5.513681 0.008148 -5.408368
v 4.701653 0.008148 -5.408368
v -5.513683 17.085497 4.596342
v -4.701654 17.085497 4.596342
v -5.513683 17.085497 5.408370
v -4.701654 17.085497 5.408370
v -5.513681 0.008148 4.596342
v -4.701653 0.008148 4.596342
v -5.513681 0.008148 5.408370
v -4.701653 0.008148 5.408370
v 5.513683 17.085497 4.596342
v 4.701654 17.085497 4.596342
v 5.513683 17.085497 5.408370
v 4.701654 17.085497 5.408370
v 5.513681 0.008148 4.596342
v 4.701653 0.008148 4.596342
v 5.513681 0.008148 5.408370
v 4.701653 0.008148 5.408370
vn -1.0000 -0.0000 -0.0000
vn -0.0000 -0.0000 -1.0000
vn 1.0000 -0.0000 -0.0000
vn -0.0000 -0.0000 1.0000
vn -0.0000 -1.0000 -0.0000
vn -0.0000 1.0000 -0.0000
vn -0.0000 0.4601 -0.8879
vn -0.0000 -0.4601 0.8879
vn -0.0000 -0.8879 -0.4601
vn -0.0000 0.8879 0.4601
vn -0.0000 -0.4281 -0.9037
vn -0.0000 0.4281 0.9037
vn -0.0000 -0.9037 0.4281
vn -0.0000 0.9037 -0.4281
vn 0.8879 0.4601 -0.0000
vn -0.8879 -0.4601 -0.0000
vn 0.4601 -0.8879 -0.0000
vn -0.4601 0.8879 -0.0000
vn 0.9037 -0.4281 -0.0000
vn -0.9037 0.4281 -0.0000
vn -0.4281 -0.9037 -0.0000
vn 0.4281 0.9037 -0.0000
vt 0.375000 0.000000
vt 0.625000 0.000000
vt 0.625000 0.250000
vt 0.375000 0.250000
vt 0.625000 0.500000
vt 0.375000 0.500000
vt 0.625000 0.750000
vt 0.375000 0.750000
vt 0.625000 1.000000
vt 0.375000 1.000000
vt 0.125000 0.500000
vt 0.125000 0.750000
vt 0.875000 0.500000
vt 0.875000 0.750000
s 0
g off
f 1/1/1 2/2/1 4/3/1 3/4/1
f 3/4/2 4/3/2 8/5/2 7/6/2
f 7/6/3 8/5/3 6/7/3 5/8/3
f 5/8/4 6/7/4 2/9/4 1/10/4
f 3/11/5 7/6/5 5/8/5 1/12/5
f 8/5/6 4/13/6 2/14/6 6/7/6
f 9/1/1 10/2/1 12/3/1 11/4/1
f 11/4/2 12/3/2 16/5/2 15/6/2
f 15/6/3 16/5/3 14/7/3 13/8/3
f 13/8/4 14/7/4 10/9/4 9/10/4
f 11/11/5 15/6/5 13/8/5 9/12/5
f 16/5/6 12/13/6 10/14/6 14/7/6
f 17/1/2 18/2/2 20/3/2 19/4/2
f 19/4/3 20/3/3 24/5/3 23/6/3
f 23/6/4 24/5/4 22/7/4 21/8/4
f 21/8/1 22/7/1 18/9/1 17/10/1
f 19/11/5 23/6/5 21/8/5 17/12/5
f 24/5/6 20/13/6 18/14/6 22/7/6
f 25/1/7 26/2/7 28/3/7 27/4/7
f 27/4/3 28/3/3 32/5/3 31/6/3
f 31/6/8 32/5/8 30/7/8 29/8/8
f 29/8/1 30/7/1 26/9/1 25/10/1
f 27/11/9 31/6/9 29/8/9 25/12/9
f 32/5/10 28/13/10 26/14/10 30/7/10
f 33/1/11 34/2/11 36/3/11 35/4/11
f 35/4/3 36/3/3 40/5/3 39/6/3
f 39/6/12 40/5/12 38/7/12 37/8/12
f 37/8/1 38/7/1 34/9/1 33/10/1
f 35/11/13 39/6/13 37/8/13 33/12/13
f 40/5/14 36/13/14 34/14/14 38/7/14
f 41/1/7 42/2/7 44/3/7 43/4/7
f 43/4/3 44/3/3 48/5/3 47/6/3
f 47/6/8 48/5/8 46/7/8 45/8/8
f 45/8/1 46/7/1 42/9/1 41/10/1
f 43/11/9 47/6/9 45/8/9 41/12/9
f 48/5/10 44/13/10 42/14/10 46/7/10
f 49/1/11 50/2/11 52/3/11 51/4/11
f 51/4/3 52/3/3 56/5/3 55/6/3
f 55/6/12 56/5/12 54/7/12 53/8/12
f 53/8/1 54/7/1 50/9/1 49/10/1
f 51/11/13 55/6/13 53/8/13 49/12/13
f 56/5/14 52/13/14 50/14/14 54/7/14
f 57/1/7 58/2/7 60/3/7 59/4/7
f 59/4/3 60/3/3 64/5/3 63/6/3
f 63/6/8 64/5/8 62/7/8 61/8/8
f 61/8/1 62/7/1 58/9/1 57/10/1
f 59/11/9 63/6/9 61/8/9 57/12/9
f 64/5/10 60/13/10 58/14/10 62/7/10
f 65/1/11 66/2/11 68/3/11 67/4/11
f 67/4/3 68/3/3 72/5/3 71/6/3
f 71/6/12 72/5/12 70/7/12 69/8/12
f 69/8/1 70/7/1 66/9/1 65/10/1
f 67/11/13 71/6/13 69/8/13 65/12/13
f 72/5/14 68/13/14 66/14/14 70/7/14
f 73/1/2 74/2/2 76/3/2 75/4/2
f 75/4/3 76/3/3 80/5/3 79/6/3
f 79/6/4 80/5/4 78/7/4 77/8/4
f 77/8/1 78/7/1 74/9/1 73/10/1
f 75/11/5 79/6/5 77/8/5 73/12/5
f 80/5/6 76/13/6 74/14/6 78/7/6
f 81/1/2 82/2/2 84/3/2 83/4/2
f 83/4/3 84/3/3 88/5/3 87/6/3
f 87/6/4 88/5/4 86/7/4 85/8/4
f 85/8/1 86/7/1 82/9/1 81/10/1
f 83/11/5 87/6/5 85/8/5 81/12/5
f 88/5/6 84/13/6 82/14/6 86/7/6
f 89/1/2 90/2/2 92/3/2 91/4/2
f 91/4/3 92/3/3 96/5/3 95/6/3
f 95/6/4 96/5/4 94/7/4 93/8/4
f 93/8/1 94/7/1 90/9/1 89/10/1
f 91/11/5 95/6/5 93/8/5 89/12/5
f 96/5/6 92/13/6 90/14/6 94/7/6
f 97/1/2 99/4/2 100/3/2 98/2/2
f 99/4/1 103/6/1 104/5/1 100/3/1
f 103/6/4 101/8/4 102/7/4 104/5/4
f 101/8/3 97/10/3 98/9/3 102/7/3
f 99/11/5 97/12/5 101/8/5 103/6/5
f 104/5/6 102/7/6 98/14/6 100/13/6
f 105/1/7 107/4/7 108/3/7 106/2/7
f 107/4/1 111/6/1 112/5/1 108/3/1
f 111/6/8 109/8/8 110/7/8 112/5/8
f 109/8/3 105/10/3 106/9/3 110/7/3
f 107/11/9 105/12/9 109/8/9 111/6/9
f 112/5/10 110/7/10 106/14/10 108/13/10
f 113/1/11 115/4/11 116/3/11 114/2/11
f 115/4/1 119/6/1 120/5/1 116/3/1
f 119/6/12 117/8/12 118/7/12 120/5/12
f 117/8/3 113/10/3 114/9/3 118/7/3
f 115/11/13 113/12/13 117/8/13 119/6/13
f 120/5/14 118/7/14 114/14/14 116/13/14
f 121/1/7 123/4/7 124/3/7 122/2/7
f 123/4/1 127/6/1 128/5/1 124/3/1
f 127/6/8 125/8/8 126/7/8 128/5/8
f 125/8/3 121/10/3 122/9/3 126/7/3
f 123/11/9 121/12/9 125/8/9 127/6/9
f 128/5/10 126/7/10 122/14/10 124/13/10
f 129/1/11 131/4/11 132/3/11 130/2/11
f 131/4/1 135/6/1 136/5/1 132/3/1
f 135/6/12 133/8/12 134/7/12 136/5/12
f 133/8/3 129/10/3 130/9/3 134/7/3
f 131/11/13 129/12/13 133/8/13 135/6/13
f 136/5/14 134/7/14 130/14/14 132/13/14
f 137/1/7 139/4/7 140/3/7 138/2/7
f 139/4/1 143/6/1 144/5/1 140/3/1
f 143/6/8 141/8/8 142/7/8 144/5/8
f 141/8/3 137/10/3 138/9/3 142/7/3
f 139/11/9 137/12/9 141/8/9 143/6/9
f 144/5/10 142/7/10 138/14/10 140/13/10
f 145/1/11 147/4/11 148/3/11 146/2/11
f 147/4/1 151/6/1 152/5/1 148/3/1
f 151/6/12 149/8/12 150/7/12 152/5/12
f 149/8/3 145/10/3 146/9/3 150/7/3
f 147/11/13 145/12/13 149/8/13 151/6/13
f 152/5/14 150/7/14 146/14/14 148/13/14
f 153/1/2 155/4/2 156/3/2 154/2/2
f 155/4/1 159/6/1 160/5/1 156/3/1
f 159/6/4 157/8/4 158/7/4 160/5/4
f 157/8/3 153/10/3 154/9/3 158/7/3
f 155/11/5 153/12/5 157/8/5 159/6/5
f 160/5/6 158/7/6 154/14/6 156/13/6
f 161/1/2 163/4/2 164/3/2 162/2/2
f 163/4/1 167/6/1 168/5/1 164/3/1
f 167/6/4 165/8/4 166/7/4 168/5/4
f 165/8/3 161/10/3 162/9/3 166/7/3
f 163/11/5 161/12/5 165/8/5 167/6/5
f 168/5/6 166/7/6 162/14/6 164/13/6
f 169/1/2 171/4/2 172/3/2 170/2/2
f 171/4/1 175/6/1 176/5/1 172/3/1
f 175/6/4 173/8/4 174/7/4 176/5/4
f 173/8/3 169/10/3 170/9/3 174/7/3
f 171/11/5 169/12/5 173/8/5 175/6/5
f 176/5/6 174/7/6 170/14/6 172/13/6
f 177/1/3 178/2/3 180/3/3 179/4/3
f 179/4/4 180/3/4 184/5/4 183/6/4
f 183/6/1 184/5/1 182/7/1 181/8/1
f 181/8/2 182/7/2 178/9/2 177/10/2
f 179/11/5 183/6/5 181/8/5 177/12/5
f 184/5/6 180/13/6 178/14/6 182/7/6
f 185/1/15 186/2/15 188/3/15 187/4/15
f 187/4/4 188/3/4 192/5/4 191/6/4
f 191/6/16 192/5/16 190/7/16 189/8/16
f 189/8/2 190/7/2 186/9/2 185/10/2
f 187/11/17 191/6/17 189/8/17 185/12/17
f 192/5/18 188/13/18 186/14/18 190/7/18
f 193/1/19 194/2/19 196/3/19 195/4/19
f 195/4/4 196/3/4 200/5/4 199/6/4
f 199/6/20 200/5/20 198/7/20 197/8/20
f 197/8/2 198/7/2 194/9/2 193/10/2
f 195/11/21 199/6/21 197/8/21 193/12/21
f 200/5/22 196/13/22 194/14/22 198/7/22
f 201/1/15 202/2/15 204/3/15 203/4/15
f 203/4/4 204/3/4 208/5/4 207/6/4
f 207/6/16 208/5/16 206/7/16 205/8/16
f 205/8/2 206/7/2 202/9/2 201/10/2
f 203/11/17 207/6/17 205/8/17 201/12/17
f 208/5/18 204/13/18 202/14/18 206/7/18
f 209/1/19 210/2/19 212/3/19 211/4/19
f 211/4/4 212/3/4 216/5/4 215/6/4
f 215/6/20 216/5/20 214/7/20 213/8/20
f 213/8/2 214/7/2 210/9/2 209/10/2
f 211/11/21 215/6/21 213/8/21 209/12/21
f 216/5/22 212/13/22 210/14/22 214/7/22
f 217/1/15 218/2/15 220/3/15 219/4/15
f 219/4/4 220/3/4 224/5/4 223/6/4
f 223/6/16 224/5/16 222/7/16 221/8/16
f 221/8/2 222/7/2 218/9/2 217/10/2
f 219/11/17 223/6/17 221/8/17 217/12/17
f 224/5/18 220/13/18 218/14/18 222/7/18
f 225/1/19 226/2/19 228/3/19 227/4/19
f 227/4/4 228/3/4 232/5/4 231/6/4
f 231/6/20 232/5/20 230/7/20 229/8/20
f 229/8/2 230/7/2 226/9/2 225/10/2
f 227/11/21 231/6/21 229/8/21 225/12/21
f 232/5/22 228/13/22 226/14/22 230/7/22
f 233/1/3 234/2/3 236/3/3 235/4/3
f 235/4/4 236/3/4 240/5/4 239/6/4
f 239/6/1 240/5/1 238/7/1 237/8/1
f 237/8/2 238/7/2 234/9/2 233/10/2
f 235/11/5 239/6/5 237/8/5 233/12/5
f 240/5/6 236/13/6 234/14/6 238/7/6
f 241/1/3 242/2/3 244/3/3 243/4/3
f 243/4/4 244/3/4 248/5/4 247/6/4
f 247/6/1 248/5/1 246/7/1 245/8/1
f 245/8/2 246/7/2 242/9/2 241/10/2
f 243/11/5 247/6/5 245/8/5 241/12/5
f 248/5/6 244/13/6 242/14/6 246/7/6
f 249/1/3 250/2/3 252/3/3 251/4/3
f 251/4/4 252/3/4 256/5/4 255/6/4
f 255/6/1 256/5/1 254/7/1 253/8/1
f 253/8/2 254/7/2 250/9/2 249/10/2
f 251/11/5 255/6/5 253/8/5 249/12/5
f 256/5/6 252/13/6 250/14/6 254/7/6
f 257/1/3 259/4/3 260/3/3 258/2/3
f 259/4/2 263/6/2 264/5/2 260/3/2
f 263/6/1 261/8/1 262/7/1 264/5/1
f 261/8/4 257/10/4 258/9/4 262/7/4
f 259/11/5 257/12/5 261/8/5 263/6/5
f 264/5/6 262/7/6 258/14/6 260/13/6
f 265/1/15 267/4/15 268/3/15 266/2/15
f 267/4/2 271/6/2 272/5/2 268/3/2
f 271/6/16 269/8/16 270/7/16 272/5/16
f 269/8/4 265/10/4 266/9/4 270/7/4
f 267/11/17 265/12/17 269/8/17 271/6/17
f 272/5/18 270/7/18 266/14/18 268/13/18
f 273/1/19 275/4/19 276/3/19 274/2/19
f 275/4/2 279/6/2 280/5/2 276/3/2
f 279/6/20 277/8/20 278/7/20 280/5/20
f 277/8/4 273/10/4 274/9/4 278/7/4
f 275/11/21 273/12/21 277/8/21 279/6/21
f 280/5/22 278/7/22 274/14/22 276/13/22
f 281/1/15 283/4/15 284/3/15 282/2/15
f 283/4/2 287/6/2 288/5/2 284/3/2
f 287/6/16 285/8/16 286/7/16 288/5/16
f 285/8/4 281/10/4 282/9/4 286/7/4
f 283/11/17 281/12/17 285/8/17 287/6/17
f 288/5/18 286/7/18 282/14/18 284/13/18
f 289/1/19 291/4/19 292/3/19 290/2/19
f 291/4/2 295/6/2 296/5/2 292/3/2
f 295/6/20 293/8/20 294/7/20 296/5/20
f 293/8/4 289/10/4 290/9/4 294/7/4
f 291/11/21 289/12/21 293/8/21 295/6/21
f 296/5/22 294/7/22 290/14/22 292/13/22
f 297/1/15 299/4/15 300/3/15 298/2/15
f 299/4/2 303/6/2 304/5/2 300/3/2
f 303/6/16 301/8/16 302/7/16 304/5/16
f 301/8/4 297/10/4 298/9/4 302/7/4
f 299/11/17 297/12/17 301/8/17 303/6/17
f 304/5/18 302/7/18 298/14/18 300/13/18
f 305/1/19 307/4/19 308/3/19 306/2/19
f 307/4/2 311/6/2 312/5/2 308/3/2
f 311/6/20 309/8/20 310/7/20 312/5/20
f 309/8/4 305/10/4 306/9/4 310/7/4
f 307/11/21 305/12/21 309/8/21 311/6/21
f 312/5/22 310/7/22 306/14/22 308/13/22
f 313/1/3 315/4/3 316/3/3 314/2/3
f 315/4/2 319/6/2 320/5/2 316/3/2
f 319/6/1 317/8/1 318/7/1 320/5/1
f 317/8/4 313/10/4 314/9/4 318/7/4
f 315/11/5 313/12/5 317/8/5 319/6/5
f 320/5/6 318/7/6 314/14/6 316/13/6
f 321/1/3 323/4/3 324/3/3 322/2/3
f 323/4/2 327/6/2 328/5/2 324/3/2
f 327/6/1 325/8/1 326/7/1 328/5/1
f 325/8/4 321/10/4 322/9/4 326/7/4
f 323/11/5 321/12/5 325/8/5 327/6/5
f 328/5/6 326/7/6 322/14/6 324/13/6
f 329/1/3 331/4/3 332/3/3 330/2/3
f 331/4/2 335/6/2 336/5/2 332/3/2
f 335/6/1 333/8/1 334/7/1 336/5/1
f 333/8/4 329/10/4 330/9/4 334/7/4
f 331/11/5 329/12/5 333/8/5 335/6/5
f 336/5/6 334/7/6 330/14/6 332/13/6
f 337/1/6 338/2/6 340/3/6 339/4/6
f 339/4/2 340/3/2 344/5/2 343/6/2
f 343/6/5 344/5/5 342/7/5 341/8/5
f 341/8/4 342/7/4 338/9/4 337/10/4
f 339/11/1 343/6/1 341/8/1 337/12/1
f 344/5/3 340/13/3 338/14/3 342/7/3
f 345/1/6 347/4/6 348/3/6 346/2/6
f 347/4/2 351/6/2 352/5/2 348/3/2
f 351/6/5 349/8/5 350/7/5 352/5/5
f 349/8/4 345/10/4 346/9/4 350/7/4
f 347/11/3 345/12/3 349/8/3 351/6/3
f 352/5/1 350/7/1 346/14/1 348/13/1
f 353/1/6 355/4/6 356/3/6 354/2/6
f 355/4/4 359/6/4 360/5/4 356/3/4
f 359/6/5 357/8/5 358/7/5 360/5/5
f 357/8/2 353/10/2 354/9/2 358/7/2
f 355/11/1 353/12/1 357/8/1 359/6/1
f 360/5/3 358/7/3 354/14/3 356/13/3
f 361/1/6 362/2/6 364/3/6 363/4/6
f 363/4/4 364/3/4 368/5/4 367/6/4
f 367/6/5 368/5/5 366/7/5 365/8/5
f 365/8/2 366/7/2 362/9/2 361/10/2
f 363/11/3 367/6/3 365/8/3 361/12/3
f 368/5/1 364/13/1 362/14/1 366/7/1
