# Blender 4.0.1
# www.blender.org
g Scaffolding_NoStairs_Cube.045
v -5.513683 9.238843 -4.596341
v -4.701654 9.238843 -4.596341
v -5.513683 9.238843 -5.408369
v -4.701654 9.238843 -5.408369
v -5.513681 0.008147 -4.596341
v -4.701653 0.008147 -4.596341
v -5.513681 0.008147 -5.408369
v -4.701653 0.008147 -5.408369
v 5.513684 9.238843 -4.596341
v 4.701655 9.238843 -4.596341
v 5.513684 9.238843 -5.408369
v 4.701655 9.238843 -5.408369
v 5.513682 0.008147 -4.596341
v 4.701654 0.008147 -4.596341
v 5.513682 0.008147 -5.408369
v 4.701654 0.008147 -5.408369
v -5.513683 9.238843 4.596341
v -4.701654 9.238843 4.596341
v -5.513683 9.238843 5.408369
v -4.701654 9.238843 5.408369
v -5.513681 0.008147 4.596341
v -4.701652 0.008147 4.596341
v -5.513681 0.008147 5.408369
v -4.701652 0.008147 5.408369
v 5.513684 9.238843 4.596341
v 4.701655 9.238843 4.596341
v 5.513684 9.238843 5.408369
v 4.701655 9.238843 5.408369
v 5.513682 0.008147 4.596341
v 4.701654 0.008147 4.596341
v 5.513682 0.008147 5.408369
v 4.701654 0.008147 5.408369
v 5.382859 8.000957 4.548659
v 5.382859 8.590068 4.548659
v 4.855449 8.000957 4.548659
v 4.855449 8.590068 4.548659
v 5.382864 8.000957 -4.841569
v 5.382864 8.590068 -4.841569
v 4.855452 8.000957 -4.841569
v 4.855452 8.590068 -4.841569
v 4.760274 8.000957 -5.224149
v 4.760274 8.590068 -5.224149
v 4.760274 8.000957 -4.696737
v 4.760274 8.590068 -4.696737
v -4.841568 8.000957 -5.224153
v -4.841568 8.590068 -5.224153
v -4.841568 8.000957 -4.696741
v -4.841568 8.590068 -4.696741
v -4.918985 8.000957 5.224147
v -4.918985 8.590068 5.224147
v -4.918985 8.000957 4.696736
v -4.918985 8.590068 4.696736
v 4.841568 8.000957 5.224154
v 4.841568 8.590068 5.224154
v 4.841568 8.000957 4.696743
v 4.841568 8.590068 4.696743
v -5.400491 8.000957 -4.707373
v -5.400491 8.590068 -4.707373
v -4.873080 8.000957 -4.707372
v -4.873080 8.590068 -4.707372
v -5.400499 8.000957 4.841566
v -5.400499 8.590068 4.841566
v -4.873087 8.000957 4.841567
v -4.873087 8.590068 4.841567
vn -0.0000 1.0000 -0.0000
vn -0.0000 -0.0000 -1.0000
vn -0.0000 -1.0000 -0.0000
vn -0.0000 -0.0000 1.0000
vn -1.0000 -0.0000 -0.0000
vn 1.0000 -0.0000 -0.0000
vt 0.375000 0.000000
vt 0.625000 0.000000
vt 0.625000 0.250000
vt 0.375000 0.250000
vt 0.625000 0.500000
vt 0.375000 0.500000
vt 0.625000 0.750000
vt 0.375000 0.750000
vt 0.625000 1.000000
vt 0.375000 1.000000
vt 0.125000 0.500000
vt 0.125000 0.750000
vt 0.875000 0.500000
vt 0.875000 0.750000
s 0
g off
f 1/1/1 2/2/1 4/3/1 3/4/1
f 3/4/2 4/3/2 8/5/2 7/6/2
f 7/6/3 8/5/3 6/7/3 5/8/3
f 5/8/4 6/7/4 2/9/4 1/10/4
f 3/11/5 7/6/5 5/8/5 1/12/5
f 8/5/6 4/13/6 2/14/6 6/7/6
f 9/1/1 11/4/1 12/3/1 10/2/1
f 11/4/2 15/6/2 16/5/2 12/3/2
f 15/6/3 13/8/3 14/7/3 16/5/3
f 13/8/4 9/10/4 10/9/4 14/7/4
f 11/11/6 9/12/6 13/8/6 15/6/6
f 16/5/5 14/7/5 10/14/5 12/13/5
f 17/1/1 19/4/1 20/3/1 18/2/1
f 19/4/4 23/6/4 24/5/4 20/3/4
f 23/6/3 21/8/3 22/7/3 24/5/3
f 21/8/2 17/10/2 18/9/2 22/7/2
f 19/11/5 17/12/5 21/8/5 23/6/5
f 24/5/6 22/7/6 18/14/6 20/13/6
f 25/1/1 26/2/1 28/3/1 27/4/1
f 27/4/4 28/3/4 32/5/4 31/6/4
f 31/6/3 32/5/3 30/7/3 29/8/3
f 29/8/2 30/7/2 26/9/2 25/10/2
f 27/11/6 31/6/6 29/8/6 25/12/6
f 32/5/5 28/13/5 26/14/5 30/7/5
f 33/1/4 34/2/4 36/3/4 35/4/4
f 35/4/5 36/3/5 40/5/5 39/6/5
f 39/6/2 40/5/2 38/7/2 37/8/2
f 37/8/6 38/7/6 34/9/6 33/10/6
f 35/11/3 39/6/3 37/8/3 33/12/3
f 40/5/1 36/13/1 34/14/1 38/7/1
f 41/1/6 42/2/6 44/3/6 43/4/6
f 43/4/4 44/3/4 48/5/4 47/6/4
f 47/6/5 48/5/5 46/7/5 45/8/5
f 45/8/2 46/7/2 42/9/2 41/10/2
f 43/11/3 47/6/3 45/8/3 41/12/3
f 48/5/1 44/13/1 42/14/1 46/7/1
f 49/1/5 50/2/5 52/3/5 51/4/5
f 51/4/2 52/3/2 56/5/2 55/6/2
f 55/6/6 56/5/6 54/7/6 53/8/6
f 53/8/4 54/7/4 50/9/4 49/10/4
f 51/11/3 55/6/3 53/8/3 49/12/3
f 56/5/1 52/13/1 50/14/1 54/7/1
f 57/1/2 58/2/2 60/3/2 59/4/2
f 59/4/6 60/3/6 64/5/6 63/6/6
f 63/6/4 64/5/4 62/7/4 61/8/4
f 61/8/5 62/7/5 58/9/5 57/10/5
f 59/11/3 63/6/3 61/8/3 57/12/3
f 64/5/1 60/13/1 58/14/1 62/7/1
